<svg width="44" height="44" viewBox="0 0 44 44" fill="none" xmlns="http://www.w3.org/2000/svg">
<g opacity="0.07">
<circle cx="32" cy="2" r="2" transform="rotate(-180 32 2)" fill="white"/>
<circle cx="22" cy="12" r="2" transform="rotate(-180 22 12)" fill="white"/>
<circle cx="12" cy="12" r="2" transform="rotate(-180 12 12)" fill="white"/>
<circle cx="42" cy="32" r="2" transform="rotate(-180 42 32)" fill="white"/>
<circle cx="32" cy="32" r="2" transform="rotate(-180 32 32)" fill="white"/>
<circle cx="2" cy="2" r="2" transform="rotate(-180 2 2)" fill="white"/>
<circle cx="32" cy="17" r="2" transform="rotate(-180 32 17)" fill="white"/>
<circle cx="22" cy="42" r="2" transform="rotate(-180 22 42)" fill="white"/>
<circle cx="12" cy="2" r="2" transform="rotate(-180 12 2)" fill="white"/>
<circle cx="22" cy="22" r="2" transform="rotate(-180 22 22)" fill="white"/>
<circle cx="22" cy="32" r="2" transform="rotate(-180 22 32)" fill="white"/>
<circle cx="12" cy="22" r="2" transform="rotate(-180 12 22)" fill="white"/>
<circle cx="12" cy="32" r="2" transform="rotate(-180 12 32)" fill="white"/>
</g>
</svg>
