<svg width="0" height="0" class="hidden">
  <symbol fill="none" xmlns="http://www.w3.org/2000/svg" viewBox="0 0 24 25" id="3-users">
    <path fill-rule="evenodd" clip-rule="evenodd" d="M11.9726 21.1984C8.73355 21.1984 5.96655 20.6884 5.96655 18.6464C5.96655 16.6045 8.71555 14.8268 11.9726 14.8268C15.2116 14.8268 17.9786 16.5878 17.9786 18.6287C17.9786 20.6697 15.2296 21.1984 11.9726 21.1984Z" stroke="#5557DD" stroke-width="1.5" stroke-linecap="round" stroke-linejoin="round"></path>
    <path fill-rule="evenodd" clip-rule="evenodd" d="M11.9726 11.9153C14.0986 11.9153 15.8226 10.1221 15.8226 7.90944C15.8226 5.69679 14.0986 3.90253 11.9726 3.90253C9.84657 3.90253 8.12257 5.69679 8.12257 7.90944C8.11657 10.1138 9.82657 11.908 11.9456 11.9153H11.9726Z" stroke="#5557DD" stroke-width="1.5" stroke-linecap="round" stroke-linejoin="round"></path>
    <path d="M18.362 10.8151C19.599 10.4706 20.511 9.29667 20.511 7.89893C20.511 6.44083 19.518 5.22314 18.196 4.94214" stroke="#5557DD" stroke-width="1.5" stroke-linecap="round" stroke-linejoin="round"></path>
    <path d="M18.9431 14.0964C20.6971 14.0964 22.1951 15.3339 22.1951 16.4392C22.1951 17.0897 21.6781 17.7984 20.8941 17.9899" stroke="#5557DD" stroke-width="1.5" stroke-linecap="round" stroke-linejoin="round"></path>
    <path d="M5.58384 10.8151C4.34584 10.4706 3.43384 9.29667 3.43384 7.89893C3.43384 6.44083 4.42784 5.22314 5.74884 4.94214" stroke="#5557DD" stroke-width="1.5" stroke-linecap="round" stroke-linejoin="round"></path>
    <path d="M5.00176 14.0964C3.24776 14.0964 1.74976 15.3339 1.74976 16.4392C1.74976 17.0897 2.26676 17.7984 3.05176 17.9899" stroke="#5557DD" stroke-width="1.5" stroke-linecap="round" stroke-linejoin="round"></path>
  </symbol>
  <symbol fill="none" xmlns="http://www.w3.org/2000/svg" viewBox="0 0 24 24" id="Arrow - Down Circle">
    <g id="Iconly/Curved/Light/Arrow - Down Circle">
      <g id="Arrow - Down Circle">
        <path id="Stroke 1" fill-rule="evenodd" clip-rule="evenodd" d="M2.75024 12.0002C2.75024 18.9372 5.06324 21.2502 12.0002 21.2502C18.9372 21.2502 21.2502 18.9372 21.2502 12.0002C21.2502 5.06321 18.9372 2.75021 12.0002 2.75021C5.06324 2.75021 2.75024 5.06321 2.75024 12.0002Z" stroke="white" stroke-width="1.5" stroke-linecap="round" stroke-linejoin="round"></path>
        <path id="Stroke 3" d="M8.52856 10.5583C8.52856 10.5583 10.9206 14.0443 12.0006 14.0443C13.0806 14.0443 15.4706 10.5583 15.4706 10.5583" stroke="white" stroke-width="1.5" stroke-linecap="round" stroke-linejoin="round"></path>
      </g>
    </g>
  </symbol>
  <symbol fill="none" xmlns="http://www.w3.org/2000/svg" viewBox="0 0 24 24" id="Arrow - Left Circle">
    <g id="Iconly/Curved/Light/Arrow - Left Circle">
      <g id="Arrow - Left Circle">
        <path id="Stroke 1" fill-rule="evenodd" clip-rule="evenodd" d="M12 2.75043C5.063 2.75043 2.75 5.06343 2.75 12.0004C2.75 18.9374 5.063 21.2504 12 21.2504C18.937 21.2504 21.25 18.9374 21.25 12.0004C21.25 5.06343 18.937 2.75043 12 2.75043Z" stroke="white" stroke-width="1.5" stroke-linecap="round" stroke-linejoin="round"></path>
        <path id="Stroke 3" d="M13.4419 8.52875C13.4419 8.52875 9.95589 10.9207 9.95589 12.0007C9.95589 13.0807 13.4419 15.4707 13.4419 15.4707" stroke="white" stroke-width="1.5" stroke-linecap="round" stroke-linejoin="round"></path>
      </g>
    </g>
  </symbol>
  <symbol fill="none" xmlns="http://www.w3.org/2000/svg" viewBox="0 0 20 20" id="buy">
    <path d="M3.40901 4.64197C5.71901 4.53297 8.02801 4.41997 10.339 4.33797C11.412 4.29997 12.485 4.26697 13.558 4.25297C14.583 4.23997 15.693 4.10597 16.656 4.53897C19.959 6.02597 18.566 12.001 16.283 13.775C14.692 15.011 12.148 15.103 10.217 15.053C8.42501 15.008 6.26301 14.803 4.75501 13.729C2.15601 11.878 3.51401 6.83397 3.42901 3.38497C3.48001 1.45497 1.38501 1.14197 1.38501 1.14197" stroke="#5557DD" stroke-width="1.5" stroke-linecap="round" stroke-linejoin="round"></path>
    <path d="M10.885 8.14197H13.658" stroke="#5557DD" stroke-width="1.5" stroke-linecap="round" stroke-linejoin="round"></path>
    <path fill-rule="evenodd" clip-rule="evenodd" d="M5.149 17.7689C5.449 17.7689 5.693 18.0129 5.693 18.3129C5.693 18.6139 5.449 18.8579 5.149 18.8579C4.848 18.8579 4.604 18.6139 4.604 18.3129C4.604 18.0129 4.848 17.7689 5.149 17.7689Z" fill="black"></path>
    <path fill-rule="evenodd" clip-rule="evenodd" d="M5.149 17.7689C5.449 17.7689 5.693 18.0129 5.693 18.3129C5.693 18.6139 5.449 18.8579 5.149 18.8579C4.848 18.8579 4.604 18.6139 4.604 18.3129C4.604 18.0129 4.848 17.7689 5.149 17.7689Z" stroke="#5557DD" stroke-width="1.5" stroke-linecap="round" stroke-linejoin="round"></path>
    <path fill-rule="evenodd" clip-rule="evenodd" d="M15.48 17.7689C15.781 17.7689 16.025 18.0129 16.025 18.3129C16.025 18.6139 15.781 18.8579 15.48 18.8579C15.18 18.8579 14.936 18.6139 14.936 18.3129C14.936 18.0129 15.18 17.7689 15.48 17.7689Z" fill="black"></path>
    <path fill-rule="evenodd" clip-rule="evenodd" d="M15.48 17.7689C15.781 17.7689 16.025 18.0129 16.025 18.3129C16.025 18.6139 15.781 18.8579 15.48 18.8579C15.18 18.8579 14.936 18.6139 14.936 18.3129C14.936 18.0129 15.18 17.7689 15.48 17.7689Z" stroke="#5557DD" stroke-width="1.5" stroke-linecap="round" stroke-linejoin="round"></path>
  </symbol>
  <symbol fill="none" xmlns="http://www.w3.org/2000/svg" viewBox="0 0 22 22" id="calling">
    <path d="M13.3525 0.855896C17.0535 1.28365 19.9775 4.32266 20.3935 8.1745" stroke="white" stroke-width="1.5" stroke-linecap="round" stroke-linejoin="round"></path>
    <path d="M13.3525 4.54327C15.1235 4.90129 16.5075 6.34274 16.8525 8.18592" stroke="white" stroke-width="1.5" stroke-linecap="round" stroke-linejoin="round"></path>
    <path fill-rule="evenodd" clip-rule="evenodd" d="M6.70049 14.957C-0.197496 7.77704 0.783381 4.48922 1.51055 3.42973C1.60396 3.25849 3.90647 -0.328729 6.37459 1.77588C12.5008 7.0269 4.7451 6.28448 9.8894 11.6394C15.0348 16.9931 14.3203 8.9216 19.3659 15.2962C21.3882 17.8659 17.9413 20.2622 17.7778 20.3583C16.7598 21.1162 13.5995 22.137 6.70049 14.957Z" stroke="white" stroke-width="1.5" stroke-linecap="round" stroke-linejoin="round"></path>
  </symbol>
  <symbol fill="none" xmlns="http://www.w3.org/2000/svg" viewBox="0 0 18 18" id="category">
    <path fill-rule="evenodd" clip-rule="evenodd" d="M15.7503 5.00535C15.7503 6.5268 14.5164 7.7607 12.9949 7.7607C11.4735 7.7607 10.2402 6.5268 10.2402 5.00535C10.2402 3.4839 11.4735 2.25 12.9949 2.25C14.5164 2.25 15.7503 3.4839 15.7503 5.00535Z" stroke="#5557DD" stroke-width="1.5" stroke-linecap="round" stroke-linejoin="round"></path>
    <path fill-rule="evenodd" clip-rule="evenodd" d="M7.76003 5.00535C7.76003 6.5268 6.5268 7.7607 5.00467 7.7607C3.4839 7.7607 2.25 6.5268 2.25 5.00535C2.25 3.4839 3.4839 2.25 5.00467 2.25C6.5268 2.25 7.76003 3.4839 7.76003 5.00535Z" stroke="#5557DD" stroke-width="1.5" stroke-linecap="round" stroke-linejoin="round"></path>
    <path fill-rule="evenodd" clip-rule="evenodd" d="M15.7503 12.9465C15.7503 14.468 14.5164 15.7012 12.9949 15.7012C11.4735 15.7012 10.2402 14.468 10.2402 12.9465C10.2402 11.4251 11.4735 10.1912 12.9949 10.1912C14.5164 10.1912 15.7503 11.4251 15.7503 12.9465Z" stroke="#5557DD" stroke-width="1.5" stroke-linecap="round" stroke-linejoin="round"></path>
    <path fill-rule="evenodd" clip-rule="evenodd" d="M7.76003 12.9465C7.76003 14.468 6.5268 15.7012 5.00467 15.7012C3.4839 15.7012 2.25 14.468 2.25 12.9465C2.25 11.4251 3.4839 10.1912 5.00467 10.1912C6.5268 10.1912 7.76003 11.4251 7.76003 12.9465Z" stroke="#5557DD" stroke-width="1.5" stroke-linecap="round" stroke-linejoin="round"></path>
  </symbol>
  <symbol fill="none" xmlns="http://www.w3.org/2000/svg" viewBox="0 0 24 24" id="chat">
    <path fill-rule="evenodd" clip-rule="evenodd" d="M14.9395 12.4131C14.9395 11.8608 15.3872 11.4131 15.9395 11.4131H15.9485C16.5007 11.4131 16.9485 11.8608 16.9485 12.4131C16.9485 12.9654 16.5007 13.4131 15.9485 13.4131H15.9395C15.3872 13.4131 14.9395 12.9654 14.9395 12.4131Z" fill="white"></path>
    <path fill-rule="evenodd" clip-rule="evenodd" d="M10.9304 12.4131C10.9304 11.8608 11.3781 11.4131 11.9304 11.4131H11.9394C12.4917 11.4131 12.9394 11.8608 12.9394 12.4131C12.9394 12.9654 12.4917 13.4131 11.9394 13.4131H11.9304C11.3781 13.4131 10.9304 12.9654 10.9304 12.4131Z" fill="white"></path>
    <path fill-rule="evenodd" clip-rule="evenodd" d="M6.92139 12.4131C6.92139 11.8608 7.3691 11.4131 7.92139 11.4131H7.93039C8.48267 11.4131 8.93039 11.8608 8.93039 12.4131C8.93039 12.9654 8.48267 13.4131 7.93039 13.4131H7.92139C7.3691 13.4131 6.92139 12.9654 6.92139 12.4131Z" fill="white"></path>
    <path fill-rule="evenodd" clip-rule="evenodd" d="M18.5407 5.45745C14.9324 1.84768 9.06909 1.84768 5.46075 5.45745L5.46059 5.4576C2.6347 8.28294 2.02101 12.471 3.60707 15.8985C3.6124 15.91 3.61743 15.9217 3.62217 15.9334C3.71434 16.1624 3.71226 16.4219 3.70812 16.5687C3.70291 16.753 3.68252 16.9653 3.65735 17.1813C3.63356 17.3855 3.60335 17.6105 3.57263 17.8392L3.56625 17.8868C3.53298 18.1346 3.49911 18.389 3.46954 18.6438C3.40959 19.1606 3.37193 19.6431 3.38868 20.0291C3.39703 20.2215 3.41806 20.364 3.44492 20.4617C3.45396 20.4946 3.46225 20.5173 3.46836 20.5319C3.48296 20.538 3.50562 20.5463 3.53854 20.5553C3.63627 20.5821 3.77884 20.6031 3.97121 20.6115C4.35724 20.6282 4.83978 20.5906 5.35646 20.5306C5.61122 20.5011 5.86561 20.4673 6.11342 20.434L6.16065 20.4277C6.38944 20.397 6.61452 20.3668 6.8188 20.343C7.03477 20.3179 7.24708 20.2976 7.43135 20.2924C7.57812 20.2883 7.8376 20.2862 8.06653 20.3784C8.07823 20.3831 8.0898 20.3881 8.10124 20.3934C11.5294 21.9789 15.7159 21.3659 18.5407 18.5398L18.5408 18.5397C22.1496 14.9303 22.1568 9.07308 18.5408 5.45758L18.5407 5.45745ZM19.6014 4.39686C15.4072 0.201164 8.59401 0.20121 4.39988 4.397C1.13584 7.66053 0.414583 12.4849 2.20893 16.448C2.20946 16.4655 2.20971 16.4912 2.20871 16.5263C2.20541 16.6432 2.19128 16.8031 2.16743 17.0078C2.14523 17.1983 2.11669 17.4108 2.0854 17.6439L2.07958 17.6872C2.04639 17.9345 2.01084 18.2012 1.97954 18.4709C1.91777 19.0033 1.86794 19.5836 1.89009 20.0942C1.9012 20.3501 1.93123 20.6143 1.99855 20.8593C2.06435 21.0986 2.18073 21.375 2.40308 21.5974L2.40343 21.5977C2.62584 21.8199 2.90218 21.9361 3.14144 22.0018C3.38632 22.069 3.65043 22.099 3.90631 22.1101C4.41677 22.1322 4.99698 22.0824 5.52922 22.0207C5.79892 21.9894 6.06555 21.9539 6.31278 21.9207L6.35571 21.915C6.58889 21.8837 6.80149 21.8552 6.99215 21.833C7.19678 21.8092 7.3566 21.7951 7.47349 21.7918C7.50871 21.7908 7.53438 21.7911 7.55191 21.7916C11.5153 23.5851 16.3382 22.865 19.6015 19.6003C23.7952 15.406 23.8041 8.59902 19.6014 4.39686Z" fill="white"></path>
  </symbol>
 
  <symbol fill="none" xmlns="http://www.w3.org/2000/svg" viewBox="0 0 24 24" id="Close Square">
    <path fill-rule="evenodd" clip-rule="evenodd" d="M14.9244 9.06464C15.2173 9.35753 15.2173 9.83241 14.9244 10.1253L10.1324 14.9173C9.83949 15.2102 9.36461 15.2102 9.07172 14.9173C8.77883 14.6244 8.77883 14.1495 9.07172 13.8566L13.8637 9.06464C14.1566 8.77175 14.6315 8.77175 14.9244 9.06464Z" fill="#F44336"></path>
    <path fill-rule="evenodd" clip-rule="evenodd" d="M9.06952 9.06293C9.36242 8.77004 9.83729 8.77004 10.1302 9.06293L14.9302 13.8629C15.2231 14.1558 15.2231 14.6307 14.9302 14.9236C14.6373 15.2165 14.1624 15.2165 13.8695 14.9236L9.06952 10.1236C8.77663 9.8307 8.77663 9.35582 9.06952 9.06293Z" fill="#F44336"></path>
    <path fill-rule="evenodd" clip-rule="evenodd" d="M4.24329 4.24354C5.91107 2.57576 8.4899 2.00024 12 2.00024C15.5101 2.00024 18.0889 2.57576 19.7567 4.24354C21.4245 5.91132 22 8.49015 22 12.0002C22 15.5103 21.4245 18.0892 19.7567 19.7569C18.0889 21.4247 15.5101 22.0002 12 22.0002C8.4899 22.0002 5.91107 21.4247 4.24329 19.7569C2.57552 18.0892 2 15.5103 2 12.0002C2 8.49015 2.57552 5.91132 4.24329 4.24354ZM5.30396 5.3042C4.08098 6.52717 3.5 8.57334 3.5 12.0002C3.5 15.4271 4.08098 17.4733 5.30396 18.6963C6.52693 19.9193 8.5731 20.5002 12 20.5002C15.4269 20.5002 17.4731 19.9193 18.696 18.6963C19.919 17.4733 20.5 15.4271 20.5 12.0002C20.5 8.57334 19.919 6.52717 18.696 5.3042C17.4731 4.08123 15.4269 3.50024 12 3.50024C8.5731 3.50024 6.52693 4.08123 5.30396 5.3042Z" fill="#F44336"></path>
  </symbol>
  <symbol fill="none" xmlns="http://www.w3.org/2000/svg" viewBox="0 0 24 24" id="discount">
    <path fill-rule="evenodd" clip-rule="evenodd" d="M5.3042 5.3042C4.08123 6.52717 3.50024 8.57334 3.50024 12.0002C3.50024 15.4271 4.08123 17.4733 5.3042 18.6963C6.52717 19.9193 8.57334 20.5002 12.0002 20.5002C15.4271 20.5002 17.4733 19.9193 18.6963 18.6963C19.9193 17.4733 20.5002 15.4271 20.5002 12.0002C20.5002 8.57334 19.9193 6.52717 18.6963 5.3042C17.4733 4.08123 15.4271 3.50024 12.0002 3.50024C8.57334 3.50024 6.52717 4.08123 5.3042 5.3042ZM4.24354 4.24354C5.91132 2.57576 8.49015 2.00024 12.0002 2.00024C15.5103 2.00024 18.0892 2.57576 19.7569 4.24354C21.4247 5.91132 22.0002 8.49015 22.0002 12.0002C22.0002 15.5103 21.4247 18.0892 19.7569 19.7569C18.0892 21.4247 15.5103 22.0002 12.0002 22.0002C8.49015 22.0002 5.91132 21.4247 4.24354 19.7569C2.57576 18.0892 2.00024 15.5103 2.00024 12.0002C2.00024 8.49015 2.57576 5.91132 4.24354 4.24354Z" fill="white"></path>
    <path fill-rule="evenodd" clip-rule="evenodd" d="M15.1003 8.89972C15.3932 9.19262 15.3932 9.66749 15.1003 9.96038L9.96026 15.1004C9.66737 15.3933 9.19249 15.3933 8.8996 15.1004C8.60671 14.8075 8.60671 14.3326 8.8996 14.0397L14.0396 8.89972C14.3325 8.60683 14.8074 8.60683 15.1003 8.89972Z" fill="white"></path>
    <path fill-rule="evenodd" clip-rule="evenodd" d="M13.4956 14.5001C13.4956 13.9478 13.9433 13.5001 14.4956 13.5001H14.5046C15.0569 13.5001 15.5046 13.9478 15.5046 14.5001C15.5046 15.0524 15.0569 15.5001 14.5046 15.5001H14.4956C13.9433 15.5001 13.4956 15.0524 13.4956 14.5001Z" fill="white"></path>
    <path fill-rule="evenodd" clip-rule="evenodd" d="M8.49561 9.50012C8.49561 8.94784 8.94332 8.50012 9.49561 8.50012H9.50461C10.0569 8.50012 10.5046 8.94784 10.5046 9.50012C10.5046 10.0524 10.0569 10.5001 9.50461 10.5001H9.49561C8.94332 10.5001 8.49561 10.0524 8.49561 9.50012Z" fill="white"></path>
  </symbol>
  <symbol fill="none" xmlns="http://www.w3.org/2000/svg" viewBox="0 0 24 24" id="Download">
    <g id="Iconly/Curved/Light/Download">
      <g id="Download">
        <path id="Stroke 1" d="M11.8792 14.7911V2.75012" stroke="white" stroke-width="1.5" stroke-linecap="round" stroke-linejoin="round"></path>
        <path id="Stroke 3" d="M14.7951 11.8643L11.8791 14.7923L8.96313 11.8643" stroke="white" stroke-width="1.5" stroke-linecap="round" stroke-linejoin="round"></path>
        <path id="Stroke 4" d="M16.3702 7.25885C19.9492 7.58885 21.2502 8.92885 21.2502 14.2589C21.2502 21.3589 18.9392 21.3589 12.0002 21.3589C5.05924 21.3589 2.75024 21.3589 2.75024 14.2589C2.75024 8.92885 4.05024 7.58885 7.63024 7.25885" stroke="white" stroke-width="1.5" stroke-linecap="round" stroke-linejoin="round"></path>
      </g>
    </g>
  </symbol>
  <symbol fill="none" xmlns="http://www.w3.org/2000/svg" viewBox="0 0 24 24" id="Hide">
    <g id="Iconly/Curved/Light/Hide">
      <g id="Hide">
        <path id="Stroke 1" d="M6.42 17.7299C4.19 16.2699 2.75 14.0699 2.75 12.1399C2.75 8.85991 6.89 4.8399 12 4.8399C14.09 4.8399 16.03 5.5099 17.59 6.5499" stroke="#374BFF" stroke-width="1.5" stroke-linecap="round" stroke-linejoin="round"></path>
        <path id="Stroke 3" d="M19.8496 8.61029C20.7406 9.74029 21.2596 10.9903 21.2596 12.1403C21.2596 15.4203 17.1096 19.4403 11.9996 19.4403C11.0896 19.4403 10.2006 19.3103 9.36963 19.0803" stroke="#374BFF" stroke-width="1.5" stroke-linecap="round" stroke-linejoin="round"></path>
        <path id="Stroke 5" d="M9.7656 14.3671C9.1706 13.7781 8.8376 12.9751 8.8406 12.1381C8.8366 10.3931 10.2486 8.97512 11.9946 8.97212C12.8346 8.97012 13.6406 9.30312 14.2346 9.89712" stroke="#374BFF" stroke-width="1.5" stroke-linecap="round" stroke-linejoin="round"></path>
        <path id="Stroke 7" d="M15.1095 12.6992C14.8755 13.9912 13.8645 15.0042 12.5725 15.2412" stroke="#374BFF" stroke-width="1.5" stroke-linecap="round" stroke-linejoin="round"></path>
        <path id="Stroke 9" d="M19.8917 4.25L4.11768 20.024" stroke="#374BFF" stroke-width="1.5" stroke-linecap="round" stroke-linejoin="round"></path>
      </g>
    </g>
  </symbol>
  <symbol fill="none" xmlns="http://www.w3.org/2000/svg" viewBox="0 0 24 24" id="Lock">
    <g id="Iconly/Curved/Light/Lock">
      <g id="Lock">
        <path id="Stroke 1" d="M16.4709 9.40341V7.25441C16.4399 4.73541 14.3719 2.71941 11.8539 2.75041C9.38685 2.78141 7.39185 4.76741 7.34985 7.23441V9.40341" stroke="#FF0000" stroke-width="1.5" stroke-linecap="round" stroke-linejoin="round"></path>
        <path id="Stroke 3" d="M11.9102 14.1563V16.3773" stroke="#FF0000" stroke-width="1.5" stroke-linecap="round" stroke-linejoin="round"></path>
        <path id="Stroke 5" fill-rule="evenodd" clip-rule="evenodd" d="M11.9102 8.82434C6.16524 8.82434 4.25024 10.3923 4.25024 15.0953C4.25024 19.7993 6.16524 21.3673 11.9102 21.3673C17.6552 21.3673 19.5712 19.7993 19.5712 15.0953C19.5712 10.3923 17.6552 8.82434 11.9102 8.82434Z" stroke="#FF0000" stroke-width="1.5" stroke-linecap="round" stroke-linejoin="round"></path>
      </g>
    </g>
  </symbol>
  <symbol fill="none" xmlns="http://www.w3.org/2000/svg" viewBox="0 0 21 21" id="mail">
    <path d="M16.0928 7.41837C16.0928 7.41837 12.8828 11.428 10.5349 11.428C8.18807 11.428 4.94196 7.41837 4.94196 7.41837M1 10.4884C1 3.37157 3.38095 1 10.5238 1C17.6667 1 20.0476 3.37157 20.0476 10.4884C20.0476 17.6041 17.6667 19.9767 10.5238 19.9767C3.38095 19.9767 1 17.6041 1 10.4884Z" stroke="white" stroke-width="1.5" stroke-linecap="round" stroke-linejoin="round"></path>
  </symbol>
  <symbol fill="none" xmlns="http://www.w3.org/2000/svg" viewBox="0 0 24 24" id="min">
    <path fill-rule="evenodd" clip-rule="evenodd" d="M7.70886 12.037C7.70886 11.6228 8.04465 11.287 8.45886 11.287H15.6147C16.0289 11.287 16.3647 11.6228 16.3647 12.037C16.3647 12.4512 16.0289 12.787 15.6147 12.787H8.45886C8.04465 12.787 7.70886 12.4512 7.70886 12.037Z" fill="#374BFF"></path>
    <path fill-rule="evenodd" clip-rule="evenodd" d="M4.96051 4.96063C3.66147 6.25968 3.05005 8.42756 3.05005 12.037C3.05005 15.6465 3.66147 17.8143 4.96051 19.1134C6.25956 20.4124 8.42744 21.0239 12.0369 21.0239C15.6463 21.0239 17.8142 20.4124 19.1133 19.1134C20.4123 17.8143 21.0237 15.6465 21.0237 12.037C21.0237 8.42756 20.4123 6.25968 19.1133 4.96063C17.8142 3.66159 15.6463 3.05017 12.0369 3.05017C8.42744 3.05017 6.25956 3.66159 4.96051 4.96063ZM3.89985 3.89997C5.6437 2.15612 8.34424 1.55017 12.0369 1.55017C15.7295 1.55017 18.4301 2.15612 20.1739 3.89997C21.9178 5.64382 22.5237 8.34436 22.5237 12.037C22.5237 15.7297 21.9178 18.4302 20.1739 20.1741C18.4301 21.9179 15.7295 22.5239 12.0369 22.5239C8.34424 22.5239 5.6437 21.9179 3.89985 20.1741C2.156 18.4302 1.55005 15.7297 1.55005 12.037C1.55005 8.34436 2.156 5.64382 3.89985 3.89997Z" fill="#374BFF"></path>
  </symbol>
<symbol fill="none" xmlns="http://www.w3.org/2000/svg" viewBox="0 0 22 21" id="play">
    <g clip-path="url(#clip0_123_130)">
      <path d="M18.3203 8.04823C20.5605 9.40229 20.5593 11.5984 18.3203 12.9517L6.05621 20.3647C3.81603 21.7187 2 20.837 2 18.3983V2.60162C2 0.161585 3.81724 -0.718041 6.05621 0.635286L18.3203 8.04823Z" fill="white"></path>
    </g>
    <defs>
      <clipPath id="clip0_123_130">
        <rect width="22" height="21" fill="white"></rect>
      </clipPath>
    </defs>
  </symbol>

  <symbol fill="none" xmlns="http://www.w3.org/2000/svg" viewBox="0 0 24 24" id="home">
    <g id="Iconly/Curved/Light/Home">
      <g id="Home">
        <path id="Stroke 1" d="M9.07874 16.1355H14.8937" stroke="#5557DD" stroke-width="1.5" stroke-linecap="round" stroke-linejoin="round"></path>
        <path id="Stroke 2" fill-rule="evenodd" clip-rule="evenodd" d="M2.40002 13.7131C2.40002 8.08212 3.01402 8.47512 6.31902 5.41012C7.76502 4.24612 10.015 2.00012 11.958 2.00012C13.9 2.00012 16.195 4.23512 17.654 5.41012C20.959 8.47512 21.572 8.08212 21.572 13.7131C21.572 22.0001 19.613 22.0001 11.986 22.0001C4.35903 22.0001 2.40002 22.0001 2.40002 13.7131Z" stroke="#5557DD" stroke-width="1.5" stroke-linecap="round" stroke-linejoin="round"></path>
      </g>
    </g>
  </symbol>

  <symbol fill="none" xmlns="http://www.w3.org/2000/svg" viewBox="0 0 24 24" id="Plays">
    <g id="Iconly/Curved/Light/Play">
      <g id="Play">
        <path id="Stroke 1" fill-rule="evenodd" clip-rule="evenodd" d="M2.75 12.0002C2.75 18.9372 5.063 21.2502 12 21.2502C18.937 21.2502 21.25 18.9372 21.25 12.0002C21.25 5.06324 18.937 2.75024 12 2.75024C5.063 2.75024 2.75 5.06324 2.75 12.0002Z" stroke="white" stroke-width="1.5" stroke-linecap="round" stroke-linejoin="round"></path>
        <path id="Stroke 3" fill-rule="evenodd" clip-rule="evenodd" d="M15.416 11.8557C15.416 10.9517 10.832 8.05965 10.312 8.57965C9.79304 9.09965 9.74204 14.5627 10.312 15.1317C10.883 15.7027 15.416 12.7597 15.416 11.8557Z" stroke="white" stroke-width="1.5" stroke-linecap="round" stroke-linejoin="round"></path>
      </g>
    </g>
  </symbol>
  <symbol fill="none" xmlns="http://www.w3.org/2000/svg" viewBox="0 0 22 22" id="Plus">
    <path fill-rule="evenodd" clip-rule="evenodd" d="M11.0369 6.71277C11.4511 6.71277 11.7869 7.04855 11.7869 7.46277V14.6112C11.7869 15.0254 11.4511 15.3612 11.0369 15.3612C10.6227 15.3612 10.2869 15.0254 10.2869 14.6112V7.46277C10.2869 7.04855 10.6227 6.71277 11.0369 6.71277Z" fill="#374BFF"></path>
    <path fill-rule="evenodd" clip-rule="evenodd" d="M6.70886 11.037C6.70886 10.6228 7.04465 10.287 7.45886 10.287H14.6147C15.0289 10.287 15.3647 10.6228 15.3647 11.037C15.3647 11.4512 15.0289 11.787 14.6147 11.787H7.45886C7.04465 11.787 6.70886 11.4512 6.70886 11.037Z" fill="#374BFF"></path>
    <path fill-rule="evenodd" clip-rule="evenodd" d="M3.96051 3.96063C2.66147 5.25968 2.05005 7.42756 2.05005 11.037C2.05005 14.6465 2.66147 16.8143 3.96051 18.1134C5.25956 19.4124 7.42744 20.0239 11.0369 20.0239C14.6463 20.0239 16.8142 19.4124 18.1133 18.1134C19.4123 16.8143 20.0237 14.6465 20.0237 11.037C20.0237 7.42756 19.4123 5.25968 18.1133 3.96063C16.8142 2.66159 14.6463 2.05017 11.0369 2.05017C7.42744 2.05017 5.25956 2.66159 3.96051 3.96063ZM2.89985 2.89997C4.6437 1.15612 7.34424 0.550171 11.0369 0.550171C14.7295 0.550171 17.4301 1.15612 19.1739 2.89997C20.9178 4.64382 21.5237 7.34436 21.5237 11.037C21.5237 14.7297 20.9178 17.4302 19.1739 19.1741C17.4301 20.9179 14.7295 21.5239 11.0369 21.5239C7.34424 21.5239 4.6437 20.9179 2.89985 19.1741C1.156 17.4302 0.550049 14.7297 0.550049 11.037C0.550049 7.34436 1.156 4.64382 2.89985 2.89997Z" fill="#374BFF"></path>
  </symbol>
  <symbol fill="none" xmlns="http://www.w3.org/2000/svg" viewBox="0 0 16 21" id="profile">
    <path fill-rule="evenodd" clip-rule="evenodd" d="M7.84455 20.0465C4.15273 20.0465 1 19.472 1 17.1712C1 14.8705 4.13273 12.7465 7.84455 12.7465C11.5364 12.7465 14.6891 14.8499 14.6891 17.1507C14.6891 19.4505 11.5564 20.0465 7.84455 20.0465Z" stroke="#5557DD" stroke-width="1.5" stroke-linecap="round" stroke-linejoin="round"></path>
    <path fill-rule="evenodd" clip-rule="evenodd" d="M7.83725 9.55824C10.26 9.55824 12.2236 7.59461 12.2236 5.17188C12.2236 2.74915 10.26 0.784607 7.83725 0.784607C5.41452 0.784607 3.44998 2.74915 3.44998 5.17188C3.4418 7.58643 5.3918 9.55006 7.80634 9.55824C7.81725 9.55824 7.82725 9.55824 7.83725 9.55824Z" stroke="#5557DD" stroke-width="1.5" stroke-linecap="round" stroke-linejoin="round"></path>
  </symbol>
  <symbol xmlns="http://www.w3.org/2000/svg" fill="none" stroke-width="1.5" stroke="currentColor" viewBox="0 0 24 24" id="puzzle">
    <path stroke-linecap="round" stroke-linejoin="round" d="M14.25 6.087c0-.355.186-.676.401-.959.221-.29.349-.634.349-1.003 0-1.036-1.007-1.875-2.25-1.875s-2.25.84-2.25 1.875c0 .369.128.713.349 1.003.215.283.401.604.401.959v0a.64.64 0 01-.657.643 48.39 48.39 0 01-4.163-.3c.186 1.613.293 3.25.315 4.907a.656.656 0 01-.658.663v0c-.355 0-.676-.186-.959-.401a1.647 1.647 0 00-1.003-.349c-1.036 0-1.875 1.007-1.875 2.25s.84 2.25 1.875 2.25c.369 0 .713-.128 1.003-.349.283-.215.604-.401.959-.401v0c.31 0 .555.26.532.57a48.039 48.039 0 01-.642 5.056c1.518.19 3.058.309 4.616.354a.64.64 0 00.657-.643v0c0-.355-.186-.676-.401-.959a1.647 1.647 0 01-.349-1.003c0-1.035 1.008-1.875 2.25-1.875 1.243 0 2.25.84 2.25 1.875 0 .369-.128.713-.349 1.003-.215.283-.4.604-.4.959v0c0 .333.277.599.61.58a48.1 48.1 0 005.427-.63 48.05 48.05 0 00.582-4.717.532.532 0 00-.533-.57v0c-.355 0-.676.186-.959.401-.29.221-.634.349-1.003.349-1.035 0-1.875-1.007-1.875-2.25s.84-2.25 1.875-2.25c.37 0 .713.128 1.003.349.283.215.604.401.96.401v0a.656.656 0 00.658-.663 48.422 48.422 0 00-.37-5.36c-1.886.342-3.81.574-5.766.689a.578.578 0 01-.61-.58v0z"></path>
  </symbol>
  <symbol fill="none" xmlns="http://www.w3.org/2000/svg" viewBox="0 0 45 45" id="radionil">
    <path fill-rule="evenodd" clip-rule="evenodd" d="M35.2085 23.8511H9.79102C9.01477 23.8511 8.38477 24.4811 8.38477 25.2573C8.38477 26.0336 9.01477 26.6636 9.79102 26.6636H11.5629C12.1985 31.6229 16.1323 35.5586 21.0935 36.1923V39.1904C21.0935 39.9667 21.7235 40.5967 22.4998 40.5967C23.276 40.5967 23.906 39.9667 23.906 39.1904V36.1942C28.8673 35.5586 32.801 31.6229 33.4366 26.6636H35.2085C35.9848 26.6636 36.6148 26.0336 36.6148 25.2573C36.6148 24.4811 35.9848 23.8511 35.2085 23.8511Z" fill="#5557DD"></path>
    <path opacity="0.4" fill-rule="evenodd" clip-rule="evenodd" d="M22.5066 4.40332C16.4129 4.40332 11.4629 9.35332 11.4629 15.4471V19.4596C11.4629 19.9846 11.8754 20.3971 12.4004 20.3971H32.5941C33.1191 20.3971 33.5316 19.9846 33.5316 19.4596V15.4471C33.5316 9.35332 28.5816 4.40332 22.5066 4.40332Z" fill="#5557DD"></path>
    <path d="M19.6934 16.9469H25.2996C26.0684 16.9469 26.7059 16.3094 26.7059 15.5407C26.7059 14.7719 26.0684 14.1344 25.2996 14.1344H19.6934C18.9246 14.1344 18.2871 14.7719 18.2871 15.5407C18.2871 16.3094 18.9246 16.9469 19.6934 16.9469Z" fill="#5557DD"></path>
    <path d="M23.4434 8.94067H21.5496C20.7809 8.94067 20.1434 9.57817 20.1434 10.3469C20.1434 11.1157 20.7809 11.7532 21.5496 11.7532H23.4434C24.2121 11.7532 24.8496 11.1157 24.8496 10.3469C24.8496 9.57817 24.2121 8.94067 23.4434 8.94067Z" fill="#5557DD"></path>
  </symbol>
  <symbol fill="none" xmlns="http://www.w3.org/2000/svg" viewBox="0 0 12 17" id="rec-done">
    <g clip-path="url(#clip0_43938_7453)">
      <path fill-rule="evenodd" clip-rule="evenodd" d="M10.7156 8.99829H0.535137C0.239742 8.99829 0 9.27497 0 9.61587C0 9.95677 0.239742 10.2334 0.535137 10.2334H1.25936C1.50338 12.5407 3.09095 14.3728 5.09023 14.6545V16.0568C5.09023 16.3977 5.32997 16.6743 5.62537 16.6743C5.92076 16.6743 6.1605 16.3977 6.1605 16.0568V14.6545C8.16049 14.3728 9.74735 12.5407 9.99137 10.2334H10.7156C11.011 10.2334 11.2507 9.95677 11.2507 9.61587C11.2507 9.27497 11.011 8.99829 10.7156 8.99829Z" fill="#11C47C"></path>
      <path opacity="0.4" fill-rule="evenodd" clip-rule="evenodd" d="M1.57966 7.34754H9.67022C9.86787 7.34754 10.027 7.16309 10.027 6.93582V5.07979C10.027 2.27928 8.05268 0 5.62458 0C3.19791 0 1.2229 2.27928 1.2229 5.07979V6.93582C1.2229 7.16309 1.38273 7.34754 1.57966 7.34754Z" fill="#11C47C"></path>
    </g>
    <defs>
      <clipPath id="clip0_43938_7453">
        <rect width="12" height="17" fill="white"></rect>
      </clipPath>
    </defs>
  </symbol>
  <symbol fill="none" xmlns="http://www.w3.org/2000/svg" viewBox="0 0 18 21" id="recording">
    <path fill-rule="evenodd" clip-rule="evenodd" d="M14.0345 10.9862H3.90283C3.59341 10.9862 3.34229 11.2764 3.34229 11.634C3.34229 11.9915 3.59341 12.2817 3.90283 12.2817H4.60911C4.86248 14.5661 6.43051 16.3789 8.4081 16.6708V18.0518C8.4081 18.4094 8.65923 18.6996 8.96865 18.6996C9.27807 18.6996 9.52919 18.4094 9.52919 18.0518V16.6717C11.5068 16.3789 13.0748 14.5661 13.3282 12.2817H14.0345C14.3439 12.2817 14.595 11.9915 14.595 11.634C14.595 11.2764 14.3439 10.9862 14.0345 10.9862Z" fill="#FF0000"></path>
    <path opacity="0.4" fill-rule="evenodd" clip-rule="evenodd" d="M8.97135 2.02829C6.54233 2.02829 4.56921 4.30835 4.56921 7.11525V8.96348C4.56921 9.20531 4.73364 9.39531 4.94291 9.39531H12.9923C13.2016 9.39531 13.366 9.20531 13.366 8.96348V7.11525C13.366 4.30835 11.3929 2.02829 8.97135 2.02829Z" fill="#FF0000"></path>
    <path d="M7.84997 7.80612H10.0847C10.3911 7.80612 10.6452 7.51247 10.6452 7.15837C10.6452 6.80427 10.3911 6.51063 10.0847 6.51063H7.84997C7.54354 6.51063 7.28943 6.80427 7.28943 7.15837C7.28943 7.51247 7.54354 7.80612 7.84997 7.80612Z" fill="#FF0000"></path>
    <path d="M9.34475 4.11829H8.58989C8.28346 4.11829 8.02935 4.41193 8.02935 4.76603C8.02935 5.12013 8.28346 5.41378 8.58989 5.41378H9.34475C9.65119 5.41378 9.9053 5.12013 9.9053 4.76603C9.9053 4.41193 9.65119 4.11829 9.34475 4.11829Z" fill="#FF0000"></path>
  </symbol>
  <symbol fill="none" xmlns="http://www.w3.org/2000/svg" viewBox="0 0 21 21" id="search">
    <path fill-rule="evenodd" clip-rule="evenodd" d="M9.56095 1.06152C14.2886 1.06152 18.1219 4.89282 18.1219 9.62006C18.1219 14.3473 14.2886 18.1786 9.56095 18.1786C4.83238 18.1786 1 14.3473 1 9.62006C1 4.89282 4.83238 1.06152 9.56095 1.06152Z" stroke="#5557DD" stroke-width="1.5" stroke-linecap="round" stroke-linejoin="round"></path>
    <path fill-rule="evenodd" clip-rule="evenodd" d="M18.1845 16.8304C18.9635 16.8304 19.595 17.4626 19.595 18.2405C19.595 19.0203 18.9635 19.6515 18.1845 19.6515C17.4054 19.6515 16.773 19.0203 16.773 18.2405C16.773 17.4626 17.4054 16.8304 18.1845 16.8304Z" stroke="#5557DD" stroke-width="1.5" stroke-linecap="round" stroke-linejoin="round"></path>
  </symbol>
  <symbol fill="none" xmlns="http://www.w3.org/2000/svg" viewBox="0 0 24 24" id="services">
    <path fill-rule="evenodd" clip-rule="evenodd" d="M11.9612 13.1389C12.3754 13.1389 12.7112 13.4747 12.7112 13.8889V16.5169C12.7112 16.9311 12.3754 17.2669 11.9612 17.2669C11.547 17.2669 11.2112 16.9311 11.2112 16.5169V13.8889C11.2112 13.4747 11.547 13.1389 11.9612 13.1389Z" fill="white"></path>
    <path fill-rule="evenodd" clip-rule="evenodd" d="M2.21816 11.0478C2.4557 10.7084 2.92334 10.6259 3.26268 10.8634L3.27447 10.8717C5.56289 12.2766 8.60547 13.1418 11.9566 13.1418C15.3056 13.1418 18.355 12.2777 20.6437 10.8747L20.6497 10.8704C20.9852 10.6275 21.4541 10.7025 21.697 11.038C21.94 11.3734 21.865 11.8424 21.5295 12.0853L21.5005 12.1063C21.4854 12.1172 21.4698 12.1276 21.454 12.1374C18.9012 13.7099 15.5641 14.6418 11.9566 14.6418C8.34869 14.6418 5.0206 13.7098 2.4691 12.1373C2.45666 12.1297 2.44445 12.1216 2.43249 12.1133L2.40249 12.0923C2.06315 11.8547 1.98062 11.3871 2.21816 11.0478Z" fill="white"></path>
    <path fill-rule="evenodd" clip-rule="evenodd" d="M5.26404 7.50242C4.07205 8.56396 3.50024 10.3339 3.50024 13.3508C3.50024 16.3677 4.07205 18.1377 5.26404 19.1992C6.48242 20.2843 8.53513 20.8038 11.9612 20.8038C15.3879 20.8038 17.4406 20.2843 18.6588 19.1993C19.8507 18.1377 20.4222 16.3678 20.4222 13.3508C20.4222 10.3338 19.8507 8.56392 18.6588 7.5024C17.4406 6.41738 15.3879 5.89783 11.9612 5.89783C8.53513 5.89783 6.48242 6.41737 5.26404 7.50242ZM4.26645 6.38224C5.92657 4.90379 8.47936 4.39783 11.9612 4.39783C15.4436 4.39783 17.9964 4.90377 19.6564 6.38226C21.3428 7.88424 21.9222 10.2158 21.9222 13.3508C21.9222 16.4858 21.3428 18.8174 19.6564 20.3194C17.9964 21.7979 15.4436 22.3038 11.9612 22.3038C8.47936 22.3038 5.92657 21.7979 4.26645 20.3194C2.57994 18.8175 2.00024 16.4859 2.00024 13.3508C2.00024 10.2157 2.57994 7.88419 4.26645 6.38224Z" fill="white"></path>
    <path fill-rule="evenodd" clip-rule="evenodd" d="M7.94873 4.73944C7.94873 3.13741 9.13523 1.70044 10.7587 1.70044H13.1637C14.7872 1.70044 15.9737 3.13741 15.9737 4.73944V5.36944C15.9737 5.78365 15.6379 6.11944 15.2237 6.11944C14.8095 6.11944 14.4737 5.78365 14.4737 5.36944V4.73944C14.4737 3.81347 13.8142 3.20044 13.1637 3.20044H10.7587C10.1082 3.20044 9.44873 3.81347 9.44873 4.73944V5.36944C9.44873 5.78365 9.11294 6.11944 8.69873 6.11944C8.28452 6.11944 7.94873 5.78365 7.94873 5.36944V4.73944Z" fill="white"></path>
  </symbol>
  <symbol fill="none" xmlns="http://www.w3.org/2000/svg" viewBox="0 0 24 24" id="Shield Done">
    <g id="Iconly/Curved/Light/Shield Done">
      <g id="Shield Done">
        <path id="Stroke 1" fill-rule="evenodd" clip-rule="evenodd" d="M11.9844 21.6058C14.3194 21.6058 19.6564 19.2838 19.6564 12.8788C19.6564 6.47479 19.9344 5.97379 19.3194 5.35779C18.7034 4.74179 15.4934 2.75079 11.9844 2.75079C8.47544 2.75079 5.26544 4.74179 4.65044 5.35779C4.03444 5.97379 4.31244 6.47479 4.31244 12.8788C4.31244 19.2838 9.65044 21.6058 11.9844 21.6058Z" stroke="#374BFF" stroke-width="1.5" stroke-linecap="round" stroke-linejoin="round"></path>
        <path id="Stroke 3" d="M9.38586 11.8749L11.2779 13.7699L15.1759 9.86987" stroke="#374BFF" stroke-width="1.5" stroke-linecap="round" stroke-linejoin="round"></path>
      </g>
    </g>
  </symbol>
  <symbol fill="none" xmlns="http://www.w3.org/2000/svg" viewBox="0 0 24 24" id="Show">
    <g id="Iconly/Curved/Light/Show">
      <g id="Show">
        <path id="Stroke 1" fill-rule="evenodd" clip-rule="evenodd" d="M15.1643 12.0523C15.1643 13.7983 13.7483 15.2143 12.0023 15.2143C10.2563 15.2143 8.84033 13.7983 8.84033 12.0523C8.84033 10.3053 10.2563 8.89026 12.0023 8.89026C13.7483 8.89026 15.1643 10.3053 15.1643 12.0523Z" stroke="#374BFF" stroke-width="1.5" stroke-linecap="round" stroke-linejoin="round"></path>
        <path id="Stroke 3" fill-rule="evenodd" clip-rule="evenodd" d="M2.75024 12.0522C2.75024 15.3322 6.89224 19.3542 12.0022 19.3542C17.1112 19.3542 21.2542 15.3352 21.2542 12.0522C21.2542 8.76924 17.1112 4.75024 12.0022 4.75024C6.89224 4.75024 2.75024 8.77224 2.75024 12.0522Z" stroke="#374BFF" stroke-width="1.5" stroke-linecap="round" stroke-linejoin="round"></path>
      </g>
    </g>
  </symbol>
  <symbol fill="none" xmlns="http://www.w3.org/2000/svg" viewBox="0 0 20 20" id="star">
    <path fill-rule="evenodd" clip-rule="evenodd" d="M10.0006 1.7467C9.28557 1.7467 8.87657 2.6467 8.33457 4.0187C8.00057 4.8677 7.65357 5.7437 7.09857 6.3177C6.37757 7.0617 5.22857 7.1197 4.11657 7.1747C2.64857 7.2467 1.93957 7.3527 1.78457 8.0127C1.61457 8.7377 2.09557 9.2277 3.15457 10.1017C3.94257 10.7517 4.83557 11.4877 5.07357 12.5707C5.27757 13.4997 5.02857 14.4747 4.78757 15.4167C4.41657 16.8687 4.30757 17.6017 4.91157 18.0587C5.46757 18.4777 6.05757 18.1717 7.26957 17.3697C8.12357 16.8057 9.00457 16.2217 10.0006 16.2217C10.9956 16.2217 11.8776 16.8057 12.7306 17.3697C13.9416 18.1707 14.5306 18.4777 15.0896 18.0587C15.6936 17.6017 15.5846 16.8677 15.2126 15.4157C14.9726 14.4747 14.7236 13.4997 14.9276 12.5697C15.1646 11.4877 16.0576 10.7517 16.8456 10.1017C17.9046 9.2287 18.3856 8.7377 18.2156 8.0117C18.0606 7.3527 17.3526 7.2467 15.8846 7.1747C14.7726 7.1197 13.6226 7.0617 12.9026 6.3177C12.3476 5.7437 12.0006 4.8677 11.6666 4.0187C11.1236 2.6457 10.7146 1.7467 10.0006 1.7467ZM5.41957 19.7537C4.95657 19.7537 4.48257 19.6127 4.00857 19.2557C2.54057 18.1487 2.98057 16.4277 3.33357 15.0457C3.53157 14.2717 3.73557 13.4747 3.60757 12.8927C3.48157 12.3147 2.85957 11.8027 2.20157 11.2597C1.18657 10.4237 -0.0774313 9.3817 0.324569 7.6697C0.755569 5.8387 2.65557 5.7447 4.04257 5.6767C4.82557 5.6377 5.71257 5.5937 6.02057 5.2747C6.36857 4.9157 6.65857 4.1807 6.93957 3.4687C7.50657 2.0327 8.21157 0.246704 10.0006 0.246704C11.7886 0.246704 12.4946 2.0327 13.0616 3.4687C13.3426 4.1807 13.6326 4.9157 13.9806 5.2747C14.2886 5.5937 15.1756 5.6377 15.9586 5.6767C17.3456 5.7447 19.2456 5.8387 19.6756 7.6687C20.0776 9.3817 18.8136 10.4237 17.7996 11.2597C17.1406 11.8027 16.5186 12.3147 16.3926 12.8927C16.2646 13.4737 16.4686 14.2717 16.6666 15.0447C17.0206 16.4277 17.4596 18.1477 15.9926 19.2557C14.5276 20.3577 13.0726 19.3947 11.9026 18.6207C11.2346 18.1787 10.5436 17.7217 10.0006 17.7217C9.45657 17.7217 8.76557 18.1787 8.09757 18.6207C7.30657 19.1437 6.38557 19.7537 5.41957 19.7537Z" fill="#FFC700"></path>
  </symbol>
  <symbol fill="none" xmlns="http://www.w3.org/2000/svg" viewBox="0 0 24 24" id="Starfull">
    <g id="Iconly/Curved/Light/Star">
      <g id="Star">
        <path id="Stroke 1" fill-rule="evenodd" clip-rule="evenodd" d="M12 3.00012C9.96385 3.00012 9.77134 6.54664 8.55911 7.7997C7.34689 9.05275 3.5782 7.62004 3.05459 9.84415C2.53207 12.0694 5.92235 12.8244 6.34036 14.7336C6.76057 16.6427 4.68922 19.325 6.45916 20.66C8.22911 21.9937 10.1343 18.9748 12 18.9748C13.8656 18.9748 15.7709 21.9937 17.5408 20.66C19.3108 19.325 17.2405 16.6427 17.6596 14.7336C18.0787 12.8244 21.4679 12.0694 20.9454 9.84415C20.4229 7.62004 16.6531 9.05275 15.442 7.7997C14.2297 6.54664 14.0361 3.00012 12 3.00012Z" fill="#FFC700" stroke="#FFC700" stroke-width="1.5" stroke-linecap="round" stroke-linejoin="round"></path>
      </g>
    </g>
  </symbol>
  <symbol fill="none" xmlns="http://www.w3.org/2000/svg" viewBox="0 0 38 41" id="support">
    <g clip-path="url(#clip0_104_117)">
      <path d="M18.4729 0H19.0489C22.6472 0.0693538 26.0862 1.49703 28.6756 3.99653C31.2651 6.49602 32.8134 9.88238 33.0099 13.476C33.0569 14.555 33.0219 15.635 33.0379 16.714C33.4909 16.7112 33.9399 16.7994 34.3582 16.9734C34.7765 17.1475 35.1555 17.4037 35.4729 17.727C35.9759 18.2303 36.3735 18.8289 36.6424 19.4878C36.9113 20.1466 37.0461 20.8524 37.0389 21.564V26.618C37.1002 27.3812 37.0326 28.1493 36.8389 28.89C36.6977 29.2905 36.4775 29.6585 36.1913 29.9721C35.9051 30.2858 35.5588 30.5388 35.1729 30.716C34.657 30.9536 34.1017 31.0943 33.5349 31.131C33.0548 31.8987 32.5162 32.6282 31.9239 33.313C30.9908 34.3157 29.8609 35.1153 28.6049 35.6617C27.3489 36.2082 25.9937 36.4898 24.6239 36.489C24.4502 37.5579 23.8957 38.5279 23.0629 39.22C22.2128 39.9311 21.1611 40.3577 20.0559 40.44H19.5069C18.3078 40.3529 17.178 39.8451 16.3169 39.006C15.7723 38.4632 15.3623 37.8004 15.1197 37.0708C14.877 36.3411 14.8085 35.5648 14.9196 34.804C15.0306 34.0431 15.3182 33.3188 15.7593 32.6889C16.2004 32.0591 16.7827 31.5412 17.4597 31.1767C18.1368 30.8122 18.8897 30.6111 19.6584 30.5897C20.427 30.5682 21.19 30.7269 21.8863 31.0531C22.5826 31.3793 23.193 31.8639 23.6685 32.4681C24.144 33.0724 24.4716 33.7795 24.6249 34.533C25.8862 34.5369 27.1302 34.2395 28.2533 33.6655C29.3765 33.0915 30.3462 32.2575 31.0819 31.233C30.6819 31.222 30.2889 31.243 29.8929 31.224C29.6517 31.2039 29.4273 31.0919 29.2662 30.9113C29.1051 30.7306 29.0194 30.495 29.0269 30.253C29.0269 26.1437 29.0269 22.0343 29.0269 17.925C29.0074 17.6782 29.0654 17.4314 29.1929 17.2192C29.3203 17.0069 29.5109 16.8398 29.7379 16.741C30.1669 16.683 30.6019 16.741 31.0379 16.708C31.0189 15.747 31.0469 14.786 31.0209 13.824C30.9002 10.6563 29.5572 7.65854 27.2737 5.45983C24.9902 3.26111 21.9438 2.03243 18.7738 2.03165C15.6038 2.03087 12.5568 3.25807 10.2722 5.45566C7.98762 7.65326 6.64313 10.6504 6.52091 13.818C6.50091 14.784 6.51191 15.752 6.51391 16.718C6.93491 16.731 7.35791 16.694 7.77891 16.737C8.01226 16.8317 8.20918 16.9986 8.34089 17.2133C8.4726 17.4279 8.53217 17.6791 8.51091 17.93C8.51558 21.906 8.51558 25.8817 8.51091 29.857C8.54678 30.1486 8.51073 30.4445 8.40591 30.719C8.32256 30.8764 8.19702 31.0075 8.04336 31.0976C7.8897 31.1877 7.71398 31.2332 7.53591 31.229C6.35191 31.229 5.16691 31.229 3.98291 31.229C3.37449 31.2307 2.77366 31.0939 2.22591 30.829C1.56819 30.5079 1.01228 30.0109 0.619871 29.3931C0.227467 28.7753 0.0139153 28.0608 0.00291081 27.329C-0.00308919 25.222 0.00291081 23.115 0.00291081 21.009C-0.0281045 20.1018 0.234432 19.2088 0.751499 18.4628C1.26857 17.7167 2.01256 17.1574 2.87291 16.868C3.40542 16.7332 3.95575 16.6826 4.50391 16.718C4.44992 15.1959 4.50205 13.6719 4.65991 12.157C5.15949 8.82733 6.8196 5.7813 9.34706 3.55684C11.8745 1.33239 15.1068 0.072612 18.4729 0ZM2.00591 20.855C1.99991 23.013 2.00591 25.171 2.00591 27.329C2.02002 27.8151 2.21483 28.2786 2.55229 28.6288C2.88975 28.979 3.34563 29.1909 3.83091 29.223C4.72391 29.238 5.61791 29.223 6.50991 29.229C6.50991 25.7263 6.50991 22.2233 6.50991 18.72C5.58691 18.72 4.66391 18.707 3.74191 18.729C3.2458 18.8164 2.79763 19.0791 2.47913 19.4694C2.16064 19.8597 1.99204 20.3515 2.00591 20.855ZM31.0289 18.726C31.0362 22.2233 31.0362 25.7213 31.0289 29.22C31.7039 29.241 32.3779 29.22 33.0529 29.229C33.6178 29.2643 34.1756 29.0882 34.6179 28.735C34.7607 28.5924 34.8717 28.4212 34.9438 28.2327C35.0158 28.0441 35.0472 27.8425 35.0359 27.641C35.0359 25.5637 35.0359 23.486 35.0359 21.408C35.0301 20.9646 34.9343 20.5269 34.7543 20.1216C34.5743 19.7163 34.3139 19.3517 33.9889 19.05C33.7283 18.8269 33.3939 18.7089 33.0509 18.719C32.3769 18.719 31.7029 18.71 31.0289 18.726ZM19.1839 32.591C18.6549 32.7 18.1657 32.9515 17.7692 33.3182C17.3726 33.685 17.0838 34.1531 16.9339 34.672C16.8284 35.0458 16.8001 35.4372 16.8508 35.8224C16.9016 36.2075 17.0302 36.5782 17.2289 36.912C17.5231 37.4236 17.9604 37.8381 18.4869 38.1046C19.0135 38.371 19.6064 38.4779 20.1929 38.412C20.7371 38.3385 21.2502 38.1155 21.6753 37.7679C22.1004 37.4204 22.4208 36.9617 22.6009 36.443C22.7692 35.8882 22.7773 35.2971 22.624 34.738C22.4708 34.1789 22.1626 33.6745 21.7349 33.283C21.3925 32.9777 20.9838 32.7562 20.541 32.6361C20.0983 32.516 19.6337 32.5006 19.1839 32.591Z" fill="#5557DD"></path>
    </g>
    <defs>
      <clipPath id="clip0_104_117">
        <rect width="37.041" height="40.44" fill="white"></rect>
      </clipPath>
    </defs>
  </symbol>
  <symbol fill="none" xmlns="http://www.w3.org/2000/svg" viewBox="0 0 40 37" id="teach">
    <g clip-path="url(#clip0_104_119)">
      <path d="M2.51509 0.575003C2.99321 0.179991 3.60043 -0.0244305 4.22009 0.00100356H37.4201C38.0561 -0.0211654 38.6771 0.197379 39.1591 0.613003C39.4126 0.836284 39.6177 1.10917 39.7617 1.4148C39.9056 1.72043 39.9854 2.05233 39.9961 2.39V22.176C39.9459 22.8165 39.6487 23.4124 39.1673 23.8379C38.6858 24.2633 38.0579 24.485 37.4161 24.456C36.0891 24.456 34.7611 24.466 33.4351 24.45C33.3101 24.4482 33.1869 24.42 33.0736 24.3673C32.9603 24.3146 32.8593 24.2386 32.7774 24.1442C32.6954 24.0498 32.6344 23.9392 32.5981 23.8195C32.5619 23.6999 32.5513 23.574 32.5671 23.45C32.6003 23.2287 32.7149 23.0277 32.8883 22.8863C33.0617 22.7448 33.2816 22.6731 33.5051 22.685C34.7851 22.678 36.0641 22.685 37.3441 22.685C37.5682 22.7088 37.7933 22.651 37.9781 22.522C38.0654 22.442 38.1329 22.3428 38.1752 22.2323C38.2176 22.1217 38.2336 22.0028 38.2221 21.885C38.2221 15.6097 38.2221 9.33467 38.2221 3.06C38.249 2.7582 38.2254 2.45401 38.1521 2.16C38.0816 2.02967 37.9735 1.92356 37.8419 1.85544C37.7103 1.78732 37.5612 1.76034 37.4141 1.778C26.4768 1.778 15.5394 1.778 4.60209 1.778C4.26809 1.791 3.86209 1.712 3.60209 1.978C3.53002 2.06251 3.47584 2.16077 3.44284 2.26682C3.40984 2.37287 3.3987 2.48452 3.41009 2.595C3.41009 6.91834 3.41009 11.2417 3.41009 15.565C3.42299 15.7176 3.40097 15.871 3.34569 16.0138C3.29042 16.1566 3.20335 16.2849 3.09109 16.389C3.00284 16.4646 2.90044 16.5219 2.78984 16.5575C2.67925 16.5931 2.56267 16.6064 2.4469 16.5965C2.33112 16.5866 2.21847 16.5538 2.1155 16.5C2.01252 16.4462 1.92129 16.3724 1.8471 16.283C1.66202 16.0005 1.58531 15.6606 1.63109 15.326C1.63709 11.055 1.63109 6.783 1.63109 2.512C1.62394 2.14354 1.69967 1.77818 1.85267 1.44291C2.00568 1.10764 2.23206 0.811034 2.51509 0.575003Z" fill="#5557DD"></path>
      <path d="M12.427 3.853C13.9466 3.64805 15.4894 3.99367 16.7763 4.82735C18.0633 5.66104 19.0094 6.92774 19.4435 8.39836C19.8777 9.86898 19.7712 11.4464 19.1434 12.8454C18.5156 14.2443 17.4079 15.3724 16.0206 16.0256C14.6333 16.6788 13.0581 16.814 11.5798 16.4067C10.1015 15.9995 8.81776 15.0766 7.96076 13.8051C7.10376 12.5336 6.73008 10.9973 6.9073 9.47426C7.08453 7.95117 7.80096 6.54178 8.92702 5.50101C9.89575 4.60378 11.1183 4.02814 12.427 3.853ZM12.764 5.59901C11.6658 5.72193 10.6473 6.23204 9.89107 7.03786C9.13487 7.84369 8.69045 8.89254 8.63749 9.99635C8.58453 11.1002 8.92649 12.1867 9.60207 13.0613C10.2776 13.9358 11.2426 14.5411 12.3241 14.7686C13.4055 14.9961 14.5325 14.8309 15.5032 14.3027C16.4739 13.7745 17.2247 12.9179 17.621 11.8863C18.0172 10.8547 18.0331 9.71568 17.6657 8.67347C17.2983 7.63126 16.5716 6.75401 15.616 6.199C14.7535 5.69954 13.7547 5.48929 12.764 5.59901Z" fill="#5557DD"></path>
      <path d="M5.067 18.111C5.7106 17.9573 6.37153 17.8884 7.033 17.906C11.433 17.906 15.833 17.906 20.233 17.906C20.8966 17.9004 21.5542 18.0326 22.1642 18.294C22.7742 18.5555 23.3234 18.9406 23.777 19.425C24.1781 19.8796 24.5106 20.3903 24.764 20.941C25.7493 22.8463 26.7357 24.7514 27.723 26.656C27.7878 26.8145 27.9085 26.9438 28.0621 27.0194C28.2158 27.0949 28.3919 27.1115 28.557 27.066C29.741 26.697 30.914 26.291 32.098 25.918C32.6726 25.7378 33.284 25.7088 33.873 25.834C34.3706 25.9419 34.8371 26.1617 35.2371 26.4767C35.6372 26.7917 35.9603 27.1936 36.182 27.652C36.3932 28.0912 36.5083 28.5702 36.5196 29.0574C36.5309 29.5445 36.4383 30.0285 36.2477 30.477C36.0572 30.9255 35.7733 31.3282 35.4148 31.6582C35.0564 31.9883 34.6317 32.2381 34.169 32.391C33.112 32.744 32.052 33.091 30.994 33.436C30.3915 33.6564 29.7743 33.8345 29.147 33.969C27.5579 34.2488 25.9212 33.9505 24.533 33.128C23.3875 32.4349 22.4677 31.4244 21.885 30.219C21.885 31.66 21.894 33.101 21.885 34.542C21.8789 34.9624 21.7643 35.374 21.5523 35.737C21.3403 36.1 21.0381 36.4021 20.675 36.614C20.2308 36.8595 19.7269 36.9762 19.22 36.951C15.315 36.951 11.408 36.951 7.503 36.951C7.09183 36.9505 6.68734 36.847 6.32646 36.6499C5.96558 36.4529 5.65979 36.1686 5.437 35.823C5.13216 35.3054 4.99652 34.7055 5.049 34.107C3.84369 33.7551 2.75059 33.0959 1.877 32.194C0.717063 30.9797 0.0483309 29.3786 0 27.7L0 24.366C0.0534114 23.1495 0.430371 21.9693 1.092 20.947C2.01484 19.5368 3.4334 18.5254 5.067 18.111ZM5.699 19.78C4.6001 20.0078 3.6121 20.6045 2.89891 21.471C2.18573 22.3375 1.79022 23.4218 1.778 24.544C1.771 25.479 1.778 26.414 1.778 27.344C1.76396 27.9066 1.83889 28.4678 2 29.007C2.3323 30.0239 2.97143 30.9129 3.82951 31.5518C4.6876 32.1907 5.72252 32.5482 6.792 32.575C7.66414 32.5568 8.52272 32.3555 9.312 31.984C9.965 31.7 10.62 31.421 11.274 31.139C11.4894 31.0475 11.6784 30.9034 11.8237 30.72C11.9691 30.5366 12.0661 30.3196 12.106 30.089C12.1468 29.8556 12.1302 29.6158 12.0578 29.3902C11.9853 29.1646 11.8591 28.96 11.69 28.794C11.4972 28.602 11.2527 28.4704 10.9863 28.4151C10.7199 28.3599 10.4432 28.3835 10.19 28.483C9.296 28.863 8.406 29.253 7.511 29.631C7.25408 29.7285 6.97872 29.7679 6.70476 29.7462C6.4308 29.7245 6.16507 29.6423 5.92671 29.5055C5.68835 29.3688 5.4833 29.1808 5.32634 28.9552C5.16938 28.7296 5.06441 28.472 5.019 28.201C4.855 26.828 4.712 25.454 4.552 24.081C4.48468 23.748 4.51739 23.4025 4.646 23.088C4.75298 22.8597 4.92716 22.6696 5.1452 22.5431C5.36323 22.4165 5.61473 22.3596 5.866 22.38C6.23485 22.4166 6.57475 22.596 6.813 22.88C7.901 24.0453 8.98933 25.212 10.078 26.38C11.3953 25.1647 12.7113 23.9473 14.026 22.728C14.181 22.5693 14.3746 22.4536 14.5877 22.3922C14.8009 22.3309 15.0264 22.326 15.242 22.378C15.4437 22.4334 15.6292 22.536 15.7833 22.6774C15.9374 22.8188 16.0555 22.9948 16.128 23.191L18.051 27.66C18.2614 28.0188 18.37 28.4281 18.365 28.844C18.3146 29.2013 18.1306 29.5261 17.85 29.753C16.4453 30.9783 15.04 32.2027 13.634 33.426C13.4389 33.6272 13.1981 33.7782 12.932 33.8661C12.6659 33.9541 12.3825 33.9763 12.106 33.931C11.6524 33.8215 11.2433 33.5754 10.934 33.226C9.66161 33.8986 8.25743 34.2847 6.82 34.357C6.81026 34.4739 6.82458 34.5915 6.86208 34.7026C6.89957 34.8137 6.95945 34.9159 7.038 35.003C7.12398 35.0728 7.22297 35.1249 7.32923 35.1561C7.4355 35.1874 7.54691 35.1972 7.657 35.185C11.3797 35.185 15.103 35.185 18.827 35.185C19.1164 35.2065 19.4073 35.1891 19.692 35.133C19.8217 35.0789 19.9312 34.9856 20.0052 34.8662C20.0793 34.7468 20.1142 34.6072 20.105 34.467C20.11 31.834 20.105 29.202 20.105 26.567C20.11 26.4377 20.1427 26.311 20.2011 26.1955C20.2595 26.08 20.3421 25.9784 20.4432 25.8977C20.5444 25.8171 20.6618 25.7592 20.7874 25.728C20.913 25.6968 21.0438 25.693 21.171 25.717C21.3387 25.7621 21.4928 25.8474 21.62 25.9656C21.7472 26.0837 21.8437 26.2311 21.901 26.395C22.4497 27.4577 23.0003 28.5187 23.553 29.578C23.9276 30.3155 24.479 30.9486 25.158 31.421C25.7539 31.8331 26.4329 32.1094 27.1472 32.2303C27.8615 32.3513 28.5937 32.314 29.292 32.121C30.592 31.714 31.883 31.267 33.181 30.846C33.5631 30.7561 33.9195 30.58 34.223 30.331C34.4348 30.1332 34.5901 29.8826 34.6728 29.6049C34.7556 29.3272 34.7629 29.0325 34.694 28.751C34.6205 28.4383 34.4538 28.1553 34.216 27.9394C33.9781 27.7235 33.6803 27.5849 33.362 27.542C32.8973 27.5258 32.435 27.6154 32.01 27.804C31.025 28.122 30.044 28.453 29.057 28.764C28.4952 28.9317 27.892 28.8927 27.3565 28.6543C26.8209 28.4159 26.3883 27.9936 26.137 27.464C25.107 25.474 24.0767 23.4843 23.046 21.495C22.8735 21.1043 22.621 20.7542 22.3047 20.4673C21.9885 20.1803 21.6155 19.9629 21.21 19.829C20.7393 19.6976 20.2497 19.6466 19.762 19.678H7.261C6.73802 19.6561 6.21423 19.6917 5.699 19.784M12.092 26.921C12.8183 27.2856 13.3833 27.9069 13.6776 28.6644C13.9719 29.4219 13.9746 30.2617 13.685 31.021C14.6297 30.1997 15.573 29.377 16.515 28.553C15.929 27.191 15.338 25.831 14.759 24.467C13.859 25.267 12.983 26.103 12.092 26.917M6.456 25.094C6.569 26.059 6.665 27.026 6.791 27.994C7.37 27.785 7.924 27.514 8.491 27.278C7.81367 26.548 7.13533 25.82 6.456 25.094Z" fill="#5557DD"></path>
    </g>
    <defs>
      <clipPath id="clip0_104_119">
        <rect width="40" height="36.953" fill="white"></rect>
      </clipPath>
    </defs>
  </symbol>
  <symbol fill="none" xmlns="http://www.w3.org/2000/svg" viewBox="0 0 20 20" id="Tick Square">
    <path fill-rule="evenodd" clip-rule="evenodd" d="M14.0905 7.09687C14.3834 7.38976 14.3834 7.86463 14.0905 8.15753L9.34452 12.9035C9.05167 13.1964 8.57688 13.1964 8.28397 12.9036L5.90997 10.5306C5.61701 10.2378 5.61691 9.76293 5.90974 9.46998C6.20258 9.17702 6.67745 9.17692 6.9704 9.46976L8.81407 11.3126L13.0299 7.09687C13.3227 6.80397 13.7976 6.80397 14.0905 7.09687Z" fill="#11C47C"></path>
    <path fill-rule="evenodd" clip-rule="evenodd" d="M2.24305 2.24354C3.91083 0.575762 6.48966 0.000244141 9.99976 0.000244141C13.5099 0.000244141 16.0887 0.575762 17.7565 2.24354C19.4242 3.91132 19.9998 6.49015 19.9998 10.0002C19.9998 13.5103 19.4242 16.0892 17.7565 17.7569C16.0887 19.4247 13.5099 20.0002 9.99976 20.0002C6.48966 20.0002 3.91083 19.4247 2.24305 17.7569C0.575274 16.0892 -0.000244141 13.5103 -0.000244141 10.0002C-0.000244141 6.49015 0.575274 3.91132 2.24305 2.24354ZM3.30371 3.3042C2.08074 4.52717 1.49976 6.57334 1.49976 10.0002C1.49976 13.4271 2.08074 15.4733 3.30371 16.6963C4.52668 17.9193 6.57285 18.5002 9.99976 18.5002C13.4267 18.5002 15.4728 17.9193 16.6958 16.6963C17.9188 15.4733 18.4998 13.4271 18.4998 10.0002C18.4998 6.57334 17.9188 4.52717 16.6958 3.3042C15.4728 2.08123 13.4267 1.50024 9.99976 1.50024C6.57285 1.50024 4.52668 2.08123 3.30371 3.3042Z" fill="#11C47C"></path>
  </symbol>
  <symbol fill="none" xmlns="http://www.w3.org/2000/svg" viewBox="0 0 17 17" id="time-circle">
    <path opacity="0.4" fill-rule="evenodd" clip-rule="evenodd" d="M8.47036 1.58813C4.67561 1.58813 1.58813 4.67545 1.58813 8.47001C1.58813 12.2646 4.67561 15.3519 8.47036 15.3519C12.2651 15.3519 15.3526 12.2646 15.3526 8.47001C15.3526 4.67545 12.2651 1.58813 8.47036 1.58813Z" fill="#5557DD"></path>
    <path d="M11.4192 9.54088H11.4284C11.7164 9.54088 11.9529 9.30937 11.9578 9.01998C11.962 8.72776 11.7291 8.48708 11.4369 8.48213L8.76022 8.43837V5.5381C8.76022 5.24589 8.52305 5.00873 8.23082 5.00873C7.93859 5.00873 7.70142 5.24589 7.70142 5.5381V8.95998C7.70142 9.24867 7.93294 9.48442 8.22235 9.48936L11.4192 9.54088Z" fill="#5557DD"></path>
  </symbol>
    <symbol fill="none" xmlns="http://www.w3.org/2000/svg" viewBox="0 0 16 16" id="time-circle-reg">
    <path fill-rule="evenodd" clip-rule="evenodd" d="M14.9374 8.00012C14.9374 11.8311 11.8316 14.9376 7.99988 14.9376C4.16888 14.9376 1.06238 11.8311 1.06238 8.00012C1.06238 4.16837 4.16888 1.06262 7.99988 1.06262C11.8316 1.06262 14.9374 4.16837 14.9374 8.00012Z" stroke="#5557DD" stroke-linecap="round" stroke-linejoin="round"></path>
    <path d="M11.1431 8.57539L7.74561 8.51989V4.88464" stroke="#5557DD" stroke-linecap="round" stroke-linejoin="round"></path>
  </symbol>
  <symbol fill="none" xmlns="http://www.w3.org/2000/svg" viewBox="0 0 18 21" id="Unlock">
    <path d="M13.2761 3.98791C12.7031 2.09291 10.9311 0.724914 8.85312 0.750914C6.38612 0.780914 4.39112 2.76791 4.34912 5.23491V7.40391" stroke="#374BFF" stroke-width="1.5" stroke-linecap="round" stroke-linejoin="round"></path>
    <path d="M8.90991 12.1563V14.3773" stroke="#374BFF" stroke-width="1.5" stroke-linecap="round" stroke-linejoin="round"></path>
    <path fill-rule="evenodd" clip-rule="evenodd" d="M8.91 6.82434C3.165 6.82434 1.25 8.39234 1.25 13.0953C1.25 17.7993 3.165 19.3673 8.91 19.3673C14.656 19.3673 16.571 17.7993 16.571 13.0953C16.571 8.39234 14.656 6.82434 8.91 6.82434Z" stroke="#374BFF" stroke-width="1.5" stroke-linecap="round" stroke-linejoin="round"></path>
  </symbol>
  <symbol fill="none" xmlns="http://www.w3.org/2000/svg" viewBox="0 0 22 16" id="Video">
    <path d="M15.1515 5.6729C16.9896 4.21576 19.4563 2.80623 19.9229 3.311C20.6943 4.13957 20.6277 12.0253 19.9229 12.7777C19.4943 13.2443 17.0086 11.8348 15.1515 10.3872" stroke="white" stroke-width="1.5" stroke-linecap="round" stroke-linejoin="round"></path>
    <path fill-rule="evenodd" clip-rule="evenodd" d="M1.5144 8.03708C1.5144 2.8447 3.23917 1.11423 8.41536 1.11423C13.5906 1.11423 15.3154 2.8447 15.3154 8.03708C15.3154 13.2285 13.5906 14.9599 8.41536 14.9599C3.23917 14.9599 1.5144 13.2285 1.5144 8.03708Z" stroke="white" stroke-width="1.5" stroke-linecap="round" stroke-linejoin="round"></path>
  </symbol>

<symbol fill="none" xmlns="http://www.w3.org/2000/svg" viewBox="0 0 24 21" id="student">
    <path d="M12.292 0.0599706L23.542 4.80897C23.6783 4.86596 23.7947 4.96197 23.8765 5.08492C23.9583 5.20787 24.002 5.35227 24.002 5.49997C24.002 5.64767 23.9583 5.79208 23.8765 5.91503C23.7947 6.03798 23.6783 6.13398 23.542 6.19097L19 8.10797V13C19 13.1379 18.9619 13.2732 18.89 13.391C18.7774 13.5655 18.6449 13.7271 18.497 13.873C18.248 14.129 17.872 14.453 17.334 14.769C16.254 15.407 14.558 15.999 12 15.999C11.327 15.999 10.714 15.958 10.154 15.886C9.96137 15.8553 9.78827 15.7507 9.67142 15.5945C9.55458 15.4383 9.5032 15.2427 9.52818 15.0493C9.55316 14.8558 9.65254 14.6797 9.80522 14.5583C9.95791 14.4369 10.1519 14.3797 10.346 14.399C10.838 14.462 11.388 14.499 12 14.499C14.317 14.499 15.746 13.966 16.572 13.478C16.882 13.3 17.168 13.081 17.421 12.828L17.5 12.743V8.73997L12.292 10.94C12.1996 10.979 12.1003 10.9991 12 10.9991C11.8997 10.9991 11.8004 10.979 11.708 10.94L5.75001 8.42397V11.594C6.25201 11.723 6.71001 11.985 7.07701 12.352C7.65601 12.93 8.00001 13.762 8.00001 14.78V19.28C7.99948 19.4059 7.96768 19.5298 7.90746 19.6405C7.84725 19.7511 7.7605 19.8451 7.65501 19.914C7.58724 19.9568 7.51714 19.9959 7.44501 20.031C7.277 20.1143 7.10322 20.1855 6.92501 20.244C6.30282 20.442 5.65294 20.5393 5.00001 20.532C4.34706 20.5398 3.6971 20.4425 3.07501 20.244C2.89698 20.1851 2.72323 20.1139 2.55501 20.031C2.47889 19.9948 2.40538 19.9534 2.33501 19.907C2.23253 19.8382 2.14843 19.7453 2.09004 19.6366C2.03165 19.5278 2.00074 19.4064 2.00001 19.283V14.783C2.00001 13.763 2.34401 12.933 2.92301 12.353C3.28986 11.9867 3.74805 11.7253 4.25001 11.596V7.79297L0.458014 6.18997C0.322722 6.13234 0.207359 6.0362 0.126272 5.91352C0.045185 5.79084 0.00195313 5.64703 0.00195312 5.49997C0.00195312 5.35291 0.045185 5.2091 0.126272 5.08642C0.207359 4.96374 0.322722 4.86761 0.458014 4.80997L11.708 0.0599706C11.8004 0.0209161 11.8997 0.000793457 12 0.000793457C12.1003 0.000793457 12.1996 0.0209161 12.292 0.0599706ZM12 9.43597L21.322 5.49997L12 1.56397L2.67801 5.49997L12 9.43597ZM5.00001 13C4.62301 13 4.25501 13.141 3.98301 13.413C3.71801 13.678 3.50001 14.113 3.50001 14.781V18.803C3.79901 18.908 4.29701 19.031 5.00001 19.031C5.70301 19.031 6.20101 18.908 6.50001 18.803V14.78C6.50001 14.111 6.28201 13.677 6.01701 13.412C5.88287 13.2799 5.72401 13.1755 5.54951 13.1048C5.37501 13.0341 5.18829 12.9985 5.00001 13Z" fill="#5557DD"></path>
  </symbol>

  <symbol fill="none" xmlns="http://www.w3.org/2000/svg" viewBox="0 0 24 24" id="article">
    <path d="M12 22.0001C4.617 22.0001 2 19.3831 2 12.0001C2 4.61712 4.617 2.00012 12 2.00012C12.414 2.00012 12.75 2.33612 12.75 2.75012C12.75 3.16412 12.414 3.50012 12 3.50012C5.486 3.50012 3.5 5.48612 3.5 12.0001C3.5 18.5141 5.486 20.5001 12 20.5001C18.514 20.5001 20.5 18.5141 20.5 12.0001C20.5 11.5861 20.836 11.2501 21.25 11.2501C21.664 11.2501 22 11.5861 22 12.0001C22 19.3831 19.383 22.0001 12 22.0001Z" fill="#5557DD"></path>
    <path fill-rule="evenodd" clip-rule="evenodd" d="M19.2365 9.38606L20.2952 8.19072C21.4472 6.88972 21.3252 4.89472 20.0252 3.74172C19.3952 3.18372 18.5812 2.90372 17.7452 2.95572C16.9052 3.00672 16.1352 3.38272 15.5772 4.01272L9.6932 10.6607C7.8692 12.7187 9.1172 15.4397 9.1712 15.5547C9.2602 15.7437 9.4242 15.8877 9.6232 15.9497C9.6802 15.9687 10.3442 16.1717 11.2192 16.1717C12.2042 16.1717 13.4572 15.9127 14.4092 14.8367L19.0774 9.56571C19.1082 9.54045 19.1374 9.51238 19.1646 9.4815C19.1915 9.45118 19.2155 9.41925 19.2365 9.38606ZM10.4082 14.5957C11.0352 14.7097 12.4192 14.8217 13.2862 13.8427L17.5371 9.04299L15.0656 6.85411L10.8172 11.6557C9.9292 12.6567 10.2122 13.9917 10.4082 14.5957ZM16.0596 5.73076L18.5322 7.91938L19.1722 7.19672C19.7752 6.51472 19.7122 5.46872 19.0312 4.86572C18.7002 4.57372 18.2712 4.42472 17.8362 4.45272C17.3962 4.48072 16.9932 4.67672 16.7002 5.00672L16.0596 5.73076Z" fill="#5557DD"></path>
  </symbol>

 <symbol fill="none" xmlns="http://www.w3.org/2000/svg" viewBox="0 0 24 24" id="calender">
    <g id="Iconly/Curved/Light/Calendar">
      <g id="Calendar">
        <path id="Stroke 1" fill-rule="evenodd" clip-rule="evenodd" d="M2.74976 12.7757C2.74976 5.81974 5.06876 3.50174 12.0238 3.50174C18.9798 3.50174 21.2988 5.81974 21.2988 12.7757C21.2988 19.7317 18.9798 22.0497 12.0238 22.0497C5.06876 22.0497 2.74976 19.7317 2.74976 12.7757Z" stroke="#5557DD" stroke-width="1.5" stroke-linecap="round" stroke-linejoin="round"></path>
        <path id="Stroke 3" d="M3.02515 9.32413H21.0331" stroke="#5557DD" stroke-width="1.5" stroke-linecap="round" stroke-linejoin="round"></path>
        <path id="Stroke 5" d="M16.4285 13.2611H16.4375" stroke="#5557DD" stroke-width="1.5" stroke-linecap="round" stroke-linejoin="round"></path>
        <path id="Stroke 7" d="M12.0291 13.2611H12.0381" stroke="#5557DD" stroke-width="1.5" stroke-linecap="round" stroke-linejoin="round"></path>
        <path id="Stroke 9" d="M7.62135 13.2611H7.63035" stroke="#5557DD" stroke-width="1.5" stroke-linecap="round" stroke-linejoin="round"></path>
        <path id="Stroke 11" d="M16.4285 17.1131H16.4375" stroke="#5557DD" stroke-width="1.5" stroke-linecap="round" stroke-linejoin="round"></path>
        <path id="Stroke 13" d="M12.0291 17.1131H12.0381" stroke="#5557DD" stroke-width="1.5" stroke-linecap="round" stroke-linejoin="round"></path>
        <path id="Stroke 15" d="M7.62135 17.1131H7.63035" stroke="#5557DD" stroke-width="1.5" stroke-linecap="round" stroke-linejoin="round"></path>
        <path id="Stroke 17" d="M16.033 2.05023V5.31223" stroke="#5557DD" stroke-width="1.5" stroke-linecap="round" stroke-linejoin="round"></path>
        <path id="Stroke 19" d="M8.02466 2.05023V5.31223" stroke="#5557DD" stroke-width="1.5" stroke-linecap="round" stroke-linejoin="round"></path>
      </g>
    </g>
  </symbol>


 <symbol fill="none" xmlns="http://www.w3.org/2000/svg" viewBox="0 0 52 15" id="Arrow-news">
    <path d="M2 7.5L51 7.5" stroke="#374BFF" stroke-width="1.5" stroke-linecap="round" stroke-linejoin="round"></path>
    <path d="M7.30029 13.2988C7.30029 13.2988 1.25029 10.0378 1.25029 7.27582C1.25029 4.51182 7.30029 1.24982 7.30029 1.24982" stroke="#374BFF" stroke-width="1.5" stroke-linecap="round" stroke-linejoin="round"></path>
  </symbol>
 
 <symbol fill="none" xmlns="http://www.w3.org/2000/svg" viewBox="0 0 24 24" id="arrow-right">
    <g id="Iconly/Curved/Light/Arrow - Right">
      <g id="Arrow - Right">
        <path id="Stroke 1" d="M19.75 11.7258L4.75 11.7258" stroke="#3B3ECF" stroke-width="1.5" stroke-linecap="round" stroke-linejoin="round"></path>
        <path id="Stroke 3" d="M13.6997 5.70134C13.6997 5.70134 19.7497 8.96234 19.7497 11.7243C19.7497 14.4883 13.6997 17.7503 13.6997 17.7503" stroke="#3B3ECF" stroke-width="1.5" stroke-linecap="round" stroke-linejoin="round"></path>
      </g>
    </g>
  </symbol>


  <symbol fill="none" xmlns="http://www.w3.org/2000/svg" viewBox="0 0 48 48" id="instagram_social">
    <g clip-path="url(#clip0_2113_186)">
      <path d="M24 4.32187C30.4125 4.32187 31.1719 4.35 33.6938 4.4625C36.0375 4.56562 37.3031 4.95938 38.1469 5.2875C39.2625 5.71875 40.0688 6.24375 40.9031 7.07812C41.7469 7.92188 42.2625 8.71875 42.6938 9.83438C43.0219 10.6781 43.4156 11.9531 43.5188 14.2875C43.6313 16.8187 43.6594 17.5781 43.6594 23.9813C43.6594 30.3938 43.6313 31.1531 43.5188 33.675C43.4156 36.0188 43.0219 37.2844 42.6938 38.1281C42.2625 39.2438 41.7375 40.05 40.9031 40.8844C40.0594 41.7281 39.2625 42.2438 38.1469 42.675C37.3031 43.0031 36.0281 43.3969 33.6938 43.5C31.1625 43.6125 30.4031 43.6406 24 43.6406C17.5875 43.6406 16.8281 43.6125 14.3063 43.5C11.9625 43.3969 10.6969 43.0031 9.85313 42.675C8.7375 42.2438 7.93125 41.7188 7.09688 40.8844C6.25313 40.0406 5.7375 39.2438 5.30625 38.1281C4.97813 37.2844 4.58438 36.0094 4.48125 33.675C4.36875 31.1438 4.34063 30.3844 4.34063 23.9813C4.34063 17.5688 4.36875 16.8094 4.48125 14.2875C4.58438 11.9437 4.97813 10.6781 5.30625 9.83438C5.7375 8.71875 6.2625 7.9125 7.09688 7.07812C7.94063 6.23438 8.7375 5.71875 9.85313 5.2875C10.6969 4.95938 11.9719 4.56562 14.3063 4.4625C16.8281 4.35 17.5875 4.32187 24 4.32187ZM24 0C17.4844 0 16.6688 0.028125 14.1094 0.140625C11.5594 0.253125 9.80625 0.665625 8.2875 1.25625C6.70312 1.875 5.3625 2.69062 4.03125 4.03125C2.69063 5.3625 1.875 6.70313 1.25625 8.27813C0.665625 9.80625 0.253125 11.55 0.140625 14.1C0.028125 16.6687 0 17.4844 0 24C0 30.5156 0.028125 31.3312 0.140625 33.8906C0.253125 36.4406 0.665625 38.1938 1.25625 39.7125C1.875 41.2969 2.69063 42.6375 4.03125 43.9688C5.3625 45.3 6.70313 46.125 8.27813 46.7344C9.80625 47.325 11.55 47.7375 14.1 47.85C16.6594 47.9625 17.475 47.9906 23.9906 47.9906C30.5063 47.9906 31.3219 47.9625 33.8813 47.85C36.4313 47.7375 38.1844 47.325 39.7031 46.7344C41.2781 46.125 42.6188 45.3 43.95 43.9688C45.2812 42.6375 46.1063 41.2969 46.7156 39.7219C47.3063 38.1938 47.7188 36.45 47.8313 33.9C47.9438 31.3406 47.9719 30.525 47.9719 24.0094C47.9719 17.4938 47.9438 16.6781 47.8313 14.1188C47.7188 11.5688 47.3063 9.81563 46.7156 8.29688C46.125 6.70312 45.3094 5.3625 43.9688 4.03125C42.6375 2.7 41.2969 1.875 39.7219 1.26562C38.1938 0.675 36.45 0.2625 33.9 0.15C31.3313 0.028125 30.5156 0 24 0Z" fill="#3B3ECF"></path>
      <path d="M24 11.6719C17.1938 11.6719 11.6719 17.1938 11.6719 24C11.6719 30.8062 17.1938 36.3281 24 36.3281C30.8062 36.3281 36.3281 30.8062 36.3281 24C36.3281 17.1938 30.8062 11.6719 24 11.6719ZM24 31.9969C19.5844 31.9969 16.0031 28.4156 16.0031 24C16.0031 19.5844 19.5844 16.0031 24 16.0031C28.4156 16.0031 31.9969 19.5844 31.9969 24C31.9969 28.4156 28.4156 31.9969 24 31.9969Z" fill="#3B3ECF"></path>
      <path d="M39.6937 11.1843C39.6937 12.778 38.4 14.0624 36.8156 14.0624C35.2219 14.0624 33.9375 12.7687 33.9375 11.1843C33.9375 9.59054 35.2313 8.30616 36.8156 8.30616C38.4 8.30616 39.6937 9.59991 39.6937 11.1843Z" fill="#3B3ECF"></path>
    </g>
    <defs>
      <clipPath id="clip0_2113_186">
        <rect width="48" height="48" fill="white"></rect>
      </clipPath>
    </defs>
  </symbol>
   <symbol fill="none" xmlns="http://www.w3.org/2000/svg" viewBox="0 0 48 48" id="discord_social">
    <path d="M40.634 8.31124C37.5747 6.90747 34.294 5.87324 30.8638 5.2809C30.8013 5.26946 30.7389 5.29803 30.7067 5.35517C30.2848 6.1056 29.8175 7.0846 29.4902 7.85409C25.8008 7.30175 22.1304 7.30175 18.5166 7.85409C18.1893 7.0675 17.705 6.1056 17.2811 5.35517C17.249 5.29994 17.1866 5.27137 17.1241 5.2809C13.6958 5.87135 10.4151 6.90558 7.35387 8.31124C7.32737 8.32266 7.30465 8.34173 7.28958 8.36647C1.06678 17.6632 -0.6379 26.7314 0.19836 35.6872C0.202144 35.731 0.22674 35.7729 0.260796 35.7996C4.36642 38.8146 8.34341 40.6451 12.2466 41.8583C12.309 41.8774 12.3752 41.8545 12.415 41.8031C13.3383 40.5422 14.1613 39.2128 14.867 37.8147C14.9086 37.7328 14.8688 37.6357 14.7837 37.6033C13.4783 37.1081 12.2352 36.5043 11.0395 35.8186C10.9449 35.7634 10.9373 35.6281 11.0243 35.5633C11.2759 35.3748 11.5276 35.1786 11.7679 34.9805C11.8114 34.9443 11.872 34.9367 11.9231 34.9596C19.7786 38.5461 28.2831 38.5461 36.0459 34.9596C36.097 34.9348 36.1576 34.9425 36.203 34.9786C36.4433 35.1767 36.6949 35.3748 36.9484 35.5633C37.0354 35.6281 37.0298 35.7634 36.9352 35.8186C35.7394 36.5176 34.4964 37.1081 33.189 37.6014C33.1039 37.6338 33.0661 37.7328 33.1077 37.8147C33.8285 39.2108 34.6515 40.5403 35.5578 41.8012C35.5956 41.8545 35.6637 41.8774 35.7262 41.8583C39.6483 40.6451 43.6252 38.8146 47.7309 35.7996C47.7668 35.7729 47.7895 35.7329 47.7933 35.6891C48.7942 25.3352 46.117 16.3414 40.6964 8.36836C40.6832 8.34173 40.6605 8.32266 40.634 8.31124ZM16.04 30.2341C13.675 30.2341 11.7263 28.0628 11.7263 25.3962C11.7263 22.7296 13.6372 20.5583 16.04 20.5583C18.4617 20.5583 20.3916 22.7487 20.3538 25.3962C20.3538 28.0628 18.4428 30.2341 16.04 30.2341ZM31.9895 30.2341C29.6245 30.2341 27.6758 28.0628 27.6758 25.3962C27.6758 22.7296 29.5867 20.5583 31.9895 20.5583C34.4113 20.5583 36.3411 22.7487 36.3033 25.3962C36.3033 28.0628 34.4113 30.2341 31.9895 30.2341Z" fill="#3B3ECF"></path>
  </symbol>
    <symbol fill="none" xmlns="http://www.w3.org/2000/svg" viewBox="0 0 48 48" id="skype_social">
    <path d="M24.0953 38.4458C16.1217 38.4458 12.4786 34.3839 12.4786 31.4047C12.4775 30.6939 12.7692 30.0142 13.2851 29.5252C13.8009 29.0363 14.4953 28.7814 15.205 28.8205C18.6189 28.8205 17.7259 33.9414 24.0953 33.9414C27.3512 33.9414 29.2636 31.9816 29.2636 30.1403C29.2636 29.0339 28.6314 27.7695 26.4819 27.2637L19.3696 25.4699C13.6561 24.0158 12.6604 20.839 12.6604 17.8914C12.6604 11.7748 18.2554 9.56209 23.5817 9.56209C28.4891 9.56209 34.3212 12.2727 34.3212 15.9394C34.3212 17.5199 33.0015 18.3655 31.4684 18.3655C28.5524 18.3655 29.0423 14.272 23.1786 14.272C20.2626 14.272 18.7295 15.6391 18.7295 17.5515C18.7295 19.464 20.9975 20.112 22.989 20.5466L28.2363 21.732C33.9893 23.028 35.5224 26.4024 35.5224 29.6345C35.5224 34.6052 31.6738 38.4458 24.0874 38.4458H24.0953ZM46.1118 27.9276C46.3396 26.6228 46.4533 25.3008 46.4516 23.9763C46.4795 17.3233 43.5562 11.0002 38.4697 6.7117C33.3833 2.42314 26.6572 0.61047 20.1046 1.7623C18.0905 0.602705 15.8062 -0.00516098 13.4822 3.30082e-05C8.71195 0.0291736 4.31489 2.5858 1.92977 6.71709C-0.455362 10.8484 -0.470791 15.9347 1.88923 20.0804C0.572355 27.3162 2.87912 34.7385 8.06547 39.9532C13.2518 45.1679 20.6614 47.5151 27.9043 46.2377C29.9159 47.3963 32.1974 48.0042 34.5188 48C39.2866 47.9693 43.681 45.4137 46.0656 41.2849C48.4502 37.1561 48.4678 32.0727 46.1118 27.9276Z" fill="#3B3ECF"></path>
  </symbol>
  <symbol fill="none" xmlns="http://www.w3.org/2000/svg" viewBox="0 0 48 48" id="telegram_social">
    <g clip-path="url(#clip0_2113_171)">
      <path fill-rule="evenodd" clip-rule="evenodd" d="M48 24C48 37.2548 37.2548 48 24 48C10.7452 48 0 37.2548 0 24C0 10.7452 10.7452 0 24 0C37.2548 0 48 10.7452 48 24ZM24.8601 17.7179C22.5257 18.6888 17.8603 20.6984 10.8638 23.7466C9.72766 24.1984 9.13251 24.6404 9.07834 25.0726C8.98677 25.803 9.90142 26.0906 11.1469 26.4822C11.3164 26.5355 11.4919 26.5907 11.6719 26.6492C12.8973 27.0475 14.5457 27.5135 15.4026 27.5321C16.1799 27.5489 17.0475 27.2284 18.0053 26.5707C24.5423 22.158 27.9168 19.9276 28.1286 19.8795C28.2781 19.8456 28.4852 19.803 28.6255 19.9277C28.7659 20.0524 28.7521 20.2886 28.7372 20.352C28.6466 20.7383 25.0562 24.0762 23.1982 25.8036C22.619 26.3421 22.2081 26.724 22.1242 26.8113C21.936 27.0067 21.7443 27.1915 21.56 27.3692C20.4215 28.4667 19.5678 29.2896 21.6072 30.6336C22.5873 31.2794 23.3715 31.8135 24.1539 32.3463C25.0084 32.9282 25.8606 33.5085 26.9632 34.2313C27.2442 34.4155 27.5125 34.6068 27.7738 34.7931C28.7681 35.5019 29.6615 36.1388 30.7652 36.0373C31.4065 35.9782 32.0689 35.3752 32.4053 33.5767C33.2004 29.3263 34.7633 20.1169 35.1244 16.3219C35.1561 15.9895 35.1163 15.5639 35.0843 15.3771C35.0523 15.1904 34.9855 14.9242 34.7427 14.7272C34.4552 14.4939 34.0113 14.4447 33.8127 14.4482C32.91 14.4641 31.5251 14.9456 24.8601 17.7179Z" fill="#3B3ECF"></path>
    </g>
    <defs>
      <clipPath id="clip0_2113_171">
        <rect width="48" height="48" fill="white"></rect>
      </clipPath>
    </defs>
  </symbol>
  <symbol fill="none" xmlns="http://www.w3.org/2000/svg" viewBox="0 0 48 48" id="linkdin_social">
    <g clip-path="url(#clip0_2113_185)">
      <path d="M44.4469 0H3.54375C1.58437 0 0 1.54688 0 3.45938V44.5312C0 46.4437 1.58437 48 3.54375 48H44.4469C46.4062 48 48 46.4438 48 44.5406V3.45938C48 1.54688 46.4062 0 44.4469 0ZM14.2406 40.9031H7.11563V17.9906H14.2406V40.9031ZM10.6781 14.8688C8.39062 14.8688 6.54375 13.0219 6.54375 10.7437C6.54375 8.46562 8.39062 6.61875 10.6781 6.61875C12.9563 6.61875 14.8031 8.46562 14.8031 10.7437C14.8031 13.0125 12.9563 14.8688 10.6781 14.8688ZM40.9031 40.9031H33.7875V29.7656C33.7875 27.1125 33.7406 23.6906 30.0844 23.6906C26.3812 23.6906 25.8187 26.5875 25.8187 29.5781V40.9031H18.7125V17.9906H25.5375V21.1219H25.6312C26.5781 19.3219 28.9031 17.4188 32.3625 17.4188C39.5719 17.4188 40.9031 22.1625 40.9031 28.3313V40.9031Z" fill="#3B3ECF"></path>
    </g>
    <defs>
      <clipPath id="clip0_2113_185">
        <rect width="48" height="48" fill="white"></rect>
      </clipPath>
    </defs>
  </symbol>
  <symbol fill="none" xmlns="http://www.w3.org/2000/svg" viewBox="0 0 48 48" id="pintres_social">
    <g clip-path="url(#clip0_2113_180)">
      <path d="M24 0C10.7438 0 0 10.7438 0 24C0 34.1719 6.32812 42.8531 15.2531 46.35C15.0469 44.4469 14.85 41.5406 15.3375 39.4688C15.7781 37.5938 18.15 27.5437 18.15 27.5437C18.15 27.5437 17.4281 26.1094 17.4281 23.9813C17.4281 20.6438 19.3594 18.15 21.7687 18.15C23.8125 18.15 24.8063 19.6875 24.8063 21.5344C24.8063 23.5969 23.4937 26.6719 22.8187 29.5219C22.2562 31.9125 24.0187 33.8625 26.3719 33.8625C30.6375 33.8625 33.9187 29.3625 33.9187 22.875C33.9187 17.1281 29.7937 13.1063 23.8969 13.1063C17.0719 13.1063 13.0594 18.225 13.0594 23.5219C13.0594 25.5844 13.8562 27.7969 14.85 28.9969C15.0469 29.2312 15.075 29.4469 15.0187 29.6813C14.8406 30.4406 14.4281 32.0719 14.3531 32.4C14.25 32.8406 14.0063 32.9344 13.5469 32.7188C10.5469 31.3219 8.67188 26.9438 8.67188 23.4188C8.67188 15.8438 14.175 8.89688 24.525 8.89688C32.85 8.89688 39.3187 14.8313 39.3187 22.7625C39.3187 31.0312 34.1063 37.6875 26.8688 37.6875C24.4406 37.6875 22.1531 36.4219 21.3656 34.9313C21.3656 34.9313 20.1656 39.5156 19.875 40.6406C19.3312 42.7219 17.8687 45.3375 16.8937 46.9313C19.1437 47.625 21.525 48 24 48C37.2562 48 48 37.2562 48 24C48 10.7438 37.2562 0 24 0Z" fill="#3B3ECF"></path>
    </g>
    <defs>
      <clipPath id="clip0_2113_180">
        <rect width="48" height="48" fill="white"></rect>
      </clipPath>
    </defs>
  </symbol>
   <symbol fill="none" xmlns="http://www.w3.org/2000/svg" viewBox="0 0 14 9" id="reply">
    <path d="M7 4.60396V2.45837C7 1.69858 6.1861 1.21634 5.51969 1.58128L1.50876 3.77774C0.835894 4.14621 0.811402 5.10384 1.46455 5.50623L5.47548 7.97725C6.14173 8.38771 7 7.9084 7 7.12585V4.60396ZM7 4.60396H12C12.5523 4.60396 13 5.05168 13 5.60396V8.91646" stroke="#6A6C87"></path>

   <symbol fill="none" xmlns="http://www.w3.org/2000/svg" viewBox="0 0 20 22" id="bag">
    <path fill-rule="evenodd" clip-rule="evenodd" d="M5.43775 5.42099C5.44374 2.91887 7.47616 0.894996 9.97918 0.899789C12.4809 0.90578 14.505 2.93866 14.4997 5.44032C14.4997 5.44074 14.4997 5.44116 14.4997 5.44158L13.7497 5.43979L14.4997 5.44032V8.47179C14.4997 8.886 14.164 9.22179 13.7497 9.22179C13.3355 9.22179 12.9997 8.886 12.9997 8.47179V5.43979L12.9997 5.43799C13.0038 3.76435 11.65 2.40399 9.97631 2.39979C8.30177 2.39677 6.94221 3.75037 6.93774 5.42374V8.47179C6.93774 8.886 6.60196 9.22179 6.18774 9.22179C5.77353 9.22179 5.43774 8.886 5.43774 8.47179L5.43775 5.42099Z" fill="#5557DD"></path>
    <path fill-rule="evenodd" clip-rule="evenodd" d="M3.38521 8.28342C2.24823 9.17332 1.69995 10.6443 1.69995 13.2076C1.69995 15.7703 2.2482 17.241 3.38518 18.1308C4.57922 19.0653 6.60338 19.5156 9.96895 19.5156C13.3345 19.5156 15.3587 19.0653 16.5527 18.1308C17.6897 17.241 18.238 15.7703 18.238 13.2076C18.238 10.6443 17.6897 9.17332 16.5527 8.28342C15.3587 7.34887 13.3345 6.89856 9.96895 6.89856C6.60338 6.89856 4.57924 7.34887 3.38521 8.28342ZM2.46069 7.1022C4.08517 5.83075 6.57053 5.39856 9.96895 5.39856C13.3674 5.39856 15.8527 5.83075 17.4772 7.1022C19.1587 8.4183 19.738 10.4768 19.738 13.2076C19.738 15.9379 19.1587 17.9961 17.4772 19.3121C15.8527 20.5834 13.3674 21.0156 9.96895 21.0156C6.57052 21.0156 4.08519 20.5834 2.46072 19.3121C0.779198 17.9961 0.199951 15.9379 0.199951 13.2076C0.199951 10.4768 0.779177 8.4183 2.46069 7.1022Z" fill="#5557DD"></path>
  </symbol>
  <symbol fill="none" xmlns="http://www.w3.org/2000/svg" viewBox="0 0 22 22" id="chat-border">
    <path fill-rule="evenodd" clip-rule="evenodd" d="M13.9395 11.4131C13.9395 10.8608 14.3872 10.4131 14.9395 10.4131H14.9485C15.5007 10.4131 15.9485 10.8608 15.9485 11.4131C15.9485 11.9654 15.5007 12.4131 14.9485 12.4131H14.9395C14.3872 12.4131 13.9395 11.9654 13.9395 11.4131Z" fill="#5557DD"></path>
    <path fill-rule="evenodd" clip-rule="evenodd" d="M9.93042 11.4131C9.93042 10.8608 10.3781 10.4131 10.9304 10.4131H10.9394C11.4917 10.4131 11.9394 10.8608 11.9394 11.4131C11.9394 11.9654 11.4917 12.4131 10.9394 12.4131H10.9304C10.3781 12.4131 9.93042 11.9654 9.93042 11.4131Z" fill="#5557DD"></path>
    <path fill-rule="evenodd" clip-rule="evenodd" d="M5.92139 11.4131C5.92139 10.8608 6.3691 10.4131 6.92139 10.4131H6.93039C7.48267 10.4131 7.93039 10.8608 7.93039 11.4131C7.93039 11.9654 7.48267 12.4131 6.93039 12.4131H6.92139C6.3691 12.4131 5.92139 11.9654 5.92139 11.4131Z" fill="#5557DD"></path>
    <path fill-rule="evenodd" clip-rule="evenodd" d="M17.5407 4.45745C13.9324 0.847681 8.06909 0.847681 4.46075 4.45745L4.46059 4.4576C1.6347 7.28294 1.02101 11.471 2.60707 14.8985C2.6124 14.91 2.61743 14.9217 2.62217 14.9334C2.71434 15.1624 2.71226 15.4219 2.70812 15.5687C2.70291 15.753 2.68252 15.9653 2.65735 16.1813C2.63356 16.3855 2.60335 16.6105 2.57263 16.8392L2.56625 16.8868C2.53298 17.1346 2.49911 17.389 2.46954 17.6438C2.40959 18.1606 2.37193 18.6431 2.38868 19.0291C2.39703 19.2215 2.41806 19.364 2.44492 19.4617C2.45396 19.4946 2.46225 19.5173 2.46836 19.5319C2.48296 19.538 2.50562 19.5463 2.53854 19.5553C2.63627 19.5821 2.77884 19.6031 2.97121 19.6115C3.35724 19.6282 3.83978 19.5906 4.35646 19.5306C4.61122 19.5011 4.86561 19.4673 5.11342 19.434L5.16065 19.4277C5.38944 19.397 5.61452 19.3668 5.8188 19.343C6.03477 19.3179 6.24708 19.2976 6.43135 19.2924C6.57812 19.2883 6.8376 19.2862 7.06653 19.3784C7.07823 19.3831 7.0898 19.3881 7.10124 19.3934C10.5294 20.9789 14.7159 20.3659 17.5407 17.5398L17.5408 17.5397C21.1496 13.9303 21.1568 8.07308 17.5408 4.45758L17.5407 4.45745ZM18.6014 3.39686C14.4072 -0.798836 7.59401 -0.79879 3.39988 3.397C0.135837 6.66053 -0.585417 11.4849 1.20893 15.448C1.20946 15.4655 1.20971 15.4912 1.20871 15.5263C1.20541 15.6432 1.19128 15.8031 1.16743 16.0078C1.14523 16.1983 1.11669 16.4108 1.0854 16.6439L1.07958 16.6872C1.04639 16.9345 1.01084 17.2012 0.979541 17.4709C0.917774 18.0033 0.867935 18.5836 0.890093 19.0942C0.901201 19.3501 0.931225 19.6143 0.998553 19.8593C1.06435 20.0986 1.18073 20.375 1.40308 20.5974L1.40343 20.5977C1.62584 20.8199 1.90218 20.9361 2.14144 21.0018C2.38632 21.069 2.65043 21.099 2.90631 21.1101C3.41677 21.1322 3.99698 21.0824 4.52922 21.0207C4.79892 20.9894 5.06555 20.9539 5.31278 20.9207L5.35571 20.915C5.58889 20.8837 5.80149 20.8552 5.99215 20.833C6.19678 20.8092 6.3566 20.7951 6.47349 20.7918C6.50871 20.7908 6.53438 20.7911 6.55191 20.7916C10.5153 22.5851 15.3382 21.865 18.6015 18.6003C22.7952 14.406 22.8041 7.59902 18.6014 3.39686Z" fill="#5557DD"></path>
  </symbol>
  <symbol fill="none" xmlns="http://www.w3.org/2000/svg" viewBox="0 0 22 20" id="logout">
    <path fill-rule="evenodd" clip-rule="evenodd" d="M8 10.1208C8 9.70664 8.33579 9.37085 8.75 9.37085H20.791C21.2052 9.37085 21.541 9.70664 21.541 10.1208C21.541 10.5351 21.2052 10.8708 20.791 10.8708H8.75C8.33579 10.8708 8 10.5351 8 10.1208Z" fill="#F44336"></path>
    <path fill-rule="evenodd" clip-rule="evenodd" d="M17.3328 6.67559C17.6251 6.3821 18.1 6.38112 18.3935 6.67342L21.3215 9.58942C21.4628 9.73016 21.5423 9.92139 21.5423 10.1208C21.5423 10.3203 21.4628 10.5115 21.3215 10.6523L18.3935 13.5683C18.1 13.8605 17.6251 13.8596 17.3328 13.5661C17.0405 13.2726 17.0415 12.7977 17.335 12.5054L19.7294 10.1208L17.335 7.73625C17.0415 7.44396 17.0405 6.96909 17.3328 6.67559Z" fill="#F44336"></path>
    <path fill-rule="evenodd" clip-rule="evenodd" d="M13.2883 2.45009C14.065 3.02564 14.4533 3.96655 14.613 5.69884C14.651 6.11131 15.0162 6.41485 15.4287 6.37683C15.8411 6.33881 16.1447 5.97362 16.1066 5.56116C15.9363 3.71345 15.4896 2.21436 14.1813 1.24491C12.927 0.315455 11.0372 0 8.35981 0C4.80999 0 2.62744 0.556543 1.50738 2.37994C0.973541 3.249 0.73763 4.3253 0.622993 5.55739C0.508805 6.78465 0.508809 8.25903 0.508814 9.96839V10.0316C0.508809 11.741 0.508805 13.2154 0.622993 14.4426C0.73763 15.6747 0.973541 16.751 1.50738 17.6201C2.62744 19.4435 4.80999 20 8.35981 20C11.0372 20 12.927 19.6845 14.1813 18.7551C15.4896 17.7856 15.9363 16.2866 16.1066 14.4388C16.1447 14.0264 15.8411 13.6612 15.4287 13.6232C15.0162 13.5851 14.651 13.8887 14.613 14.3012C14.4533 16.0334 14.065 16.9744 13.2883 17.5499C12.4576 18.1655 11.0124 18.5 8.35981 18.5C4.80864 18.5 3.44068 17.9015 2.7855 16.8349C2.43171 16.259 2.22381 15.4565 2.11654 14.3036C2.00953 13.1535 2.00881 11.7472 2.00881 10C2.00881 8.2528 2.00953 6.84654 2.11654 5.69636C2.22381 4.54345 2.43171 3.741 2.7855 3.16506C3.44068 2.09846 4.80864 1.5 8.35981 1.5C11.0124 1.5 12.4576 1.83454 13.2883 2.45009Z" fill="#F44336"></path>
  </symbol>
  <symbol fill="none" xmlns="http://www.w3.org/2000/svg" viewBox="0 0 18 22" id="Notification">
    <path fill-rule="evenodd" clip-rule="evenodd" d="M3.56025 3.39402C4.72169 1.89663 6.52151 0.764282 8.9962 0.764282C11.4705 0.764282 13.2702 1.89666 14.4318 3.39399C15.575 4.86773 16.1072 6.69879 16.1072 8.18381C16.1072 8.61005 16.0942 8.92649 16.0844 9.16661C16.0824 9.21598 16.0805 9.26213 16.0788 9.30534C16.0692 9.5636 16.0711 9.68768 16.091 9.81061C16.1362 10.0902 16.2792 10.4346 16.8506 11.6939C16.8563 11.7065 16.8617 11.7193 16.8667 11.7322C17.2795 12.7946 17.1872 13.772 16.6962 14.6002C16.2276 15.3905 15.4401 15.9725 14.5889 16.3972C12.8866 17.2464 10.6362 17.6119 8.9962 17.6119C7.35575 17.6119 5.10515 17.2464 3.40283 16.3972C2.55157 15.9725 1.76406 15.3905 1.29564 14.6001C0.804752 13.7718 0.712652 12.7944 1.12576 11.732C1.13076 11.7192 1.1361 11.7064 1.1418 11.6939C1.71321 10.4346 1.85623 10.0902 1.9014 9.81061C1.92126 9.68768 1.92322 9.5636 1.91356 9.30534C1.91194 9.26213 1.91005 9.21598 1.90803 9.16661C1.8982 8.92649 1.88525 8.61005 1.88525 8.18381C1.88525 6.69887 2.4171 4.86781 3.56025 3.39402ZM4.7455 4.31336C3.81673 5.51076 3.38525 7.01445 3.38525 8.18381C3.38525 8.5769 3.39683 8.86088 3.40658 9.09994C3.40869 9.15159 3.41071 9.20114 3.41251 9.24924C3.42246 9.51509 3.42769 9.76826 3.3822 10.0499C3.29769 10.5729 3.04077 11.1391 2.5268 12.2717L2.51677 12.2938C2.26789 12.9465 2.34773 13.4332 2.58605 13.8354C2.84906 14.2792 3.35322 14.6962 4.07243 15.0549C5.51107 15.7726 7.51665 16.1119 8.9962 16.1119C10.4752 16.1119 12.4806 15.7726 13.9193 15.0549C14.6385 14.6962 15.1427 14.2791 15.4059 13.8353C15.6443 13.4331 15.7242 12.9464 15.4756 12.2938L15.4656 12.2717C14.9516 11.1391 14.6947 10.5729 14.6102 10.0499C14.5647 9.76826 14.57 9.51509 14.5799 9.24924C14.5817 9.20114 14.5837 9.15159 14.5858 9.09995C14.5956 8.86089 14.6072 8.57691 14.6072 8.18381C14.6072 7.01453 14.1755 5.51084 13.2466 4.31339C12.336 3.13952 10.9553 2.26428 8.9962 2.26428C7.03661 2.26428 5.65595 3.13956 4.7455 4.31336Z" fill="#5557DD"></path>
    <path fill-rule="evenodd" clip-rule="evenodd" d="M6.18641 18.953C6.49534 18.677 6.96946 18.7038 7.24539 19.0127C8.25096 20.1385 9.74816 20.1281 10.7473 19.0121C11.0235 18.7035 11.4977 18.6773 11.8063 18.9535C12.1149 19.2298 12.1411 19.704 11.8648 20.0126C10.2754 21.788 7.73446 21.8119 6.12669 20.012C5.85076 19.703 5.87749 19.2289 6.18641 18.953Z" fill="#5557DD"></path>
  </symbol>
  <symbol fill="none" xmlns="http://www.w3.org/2000/svg" viewBox="0 0 20 20" id="password">
    <path fill-rule="evenodd" clip-rule="evenodd" d="M6.83686 8.89819C6.22808 8.89819 5.73486 9.39141 5.73486 10.0002C5.73486 10.609 6.22808 11.1022 6.83686 11.1022C7.44565 11.1022 7.93886 10.609 7.93886 10.0002C7.93886 9.3916 7.44675 8.89896 6.83945 8.89819H6.83686ZM4.23486 10.0002C4.23486 8.56298 5.39965 7.39819 6.83686 7.39819H6.83986C8.27642 7.3996 9.43886 8.56489 9.43886 10.0002C9.43886 11.4374 8.27408 12.6022 6.83686 12.6022C5.39965 12.6022 4.23486 11.4374 4.23486 10.0002Z" fill="#5557DD"></path>
    <path fill-rule="evenodd" clip-rule="evenodd" d="M7.94189 10.0002C7.94189 9.58603 8.27768 9.25024 8.69189 9.25024H15.0099C15.4241 9.25024 15.7599 9.58603 15.7599 10.0002V11.8522C15.7599 12.2665 15.4241 12.6022 15.0099 12.6022C14.5957 12.6022 14.2599 12.2665 14.2599 11.8522V10.7502H8.69189C8.27768 10.7502 7.94189 10.4145 7.94189 10.0002Z" fill="#5557DD"></path>
    <path fill-rule="evenodd" clip-rule="evenodd" d="M12.1821 9.25024C12.5963 9.25024 12.9321 9.58603 12.9321 10.0002V11.8522C12.9321 12.2665 12.5963 12.6022 12.1821 12.6022C11.7679 12.6022 11.4321 12.2665 11.4321 11.8522V10.0002C11.4321 9.58603 11.7679 9.25024 12.1821 9.25024Z" fill="#5557DD"></path>
    <path fill-rule="evenodd" clip-rule="evenodd" d="M3.30396 3.3042C2.08098 4.52717 1.5 6.57334 1.5 10.0002C1.5 13.4271 2.08098 15.4733 3.30396 16.6963C4.52693 17.9193 6.5731 18.5002 10 18.5002C13.4269 18.5002 15.4731 17.9193 16.696 16.6963C17.919 15.4733 18.5 13.4271 18.5 10.0002C18.5 6.57334 17.919 4.52717 16.696 3.3042C15.4731 2.08123 13.4269 1.50024 10 1.50024C6.5731 1.50024 4.52693 2.08123 3.30396 3.3042ZM2.24329 2.24354C3.91107 0.575762 6.4899 0.000244141 10 0.000244141C13.5101 0.000244141 16.0889 0.575762 17.7567 2.24354C19.4245 3.91132 20 6.49015 20 10.0002C20 13.5103 19.4245 16.0892 17.7567 17.7569C16.0889 19.4247 13.5101 20.0002 10 20.0002C6.4899 20.0002 3.91107 19.4247 2.24329 17.7569C0.575518 16.0892 0 13.5103 0 10.0002C0 6.49015 0.575518 3.91132 2.24329 2.24354Z" fill="#5557DD"></path>
  </symbol>
  <symbol fill="none" xmlns="http://www.w3.org/2000/svg" viewBox="0 0 22 20" id="wallet">
    <path fill-rule="evenodd" clip-rule="evenodd" d="M16.2845 8.29895C15.2835 8.29895 14.4717 9.11078 14.4717 10.1118C14.4717 11.114 15.2837 11.9256 16.2845 11.9256H20.1712C20.5854 11.9256 20.9212 12.2614 20.9212 12.6756C20.9212 13.0898 20.5854 13.4256 20.1712 13.4256H16.2845C14.4549 13.4256 12.9717 11.942 12.9717 10.1118C12.9717 8.28236 14.4551 6.79895 16.2845 6.79895H20.1407C20.5549 6.79895 20.8907 7.13474 20.8907 7.54895C20.8907 7.96316 20.5549 8.29895 20.1407 8.29895H16.2845Z" fill="#5557DD"></path>
    <path fill-rule="evenodd" clip-rule="evenodd" d="M15.6749 10.0532C15.6749 9.63901 16.0107 9.30322 16.4249 9.30322H16.7221C17.1363 9.30322 17.4721 9.63901 17.4721 10.0532C17.4721 10.4674 17.1363 10.8032 16.7221 10.8032H16.4249C16.0107 10.8032 15.6749 10.4674 15.6749 10.0532Z" fill="#5557DD"></path>
    <path fill-rule="evenodd" clip-rule="evenodd" d="M5.8562 6.1438C5.8562 5.72959 6.19199 5.3938 6.6062 5.3938H10.6662C11.0804 5.3938 11.4162 5.72959 11.4162 6.1438C11.4162 6.55801 11.0804 6.8938 10.6662 6.8938H6.6062C6.19199 6.8938 5.8562 6.55801 5.8562 6.1438Z" fill="#5557DD"></path>
    <path fill-rule="evenodd" clip-rule="evenodd" d="M4.25573 4.13445C3.04345 5.24742 2.46411 7.10491 2.46411 10.2533C2.46411 13.4011 3.04343 15.2587 4.25576 16.3718C5.48734 17.5026 7.5581 18.0423 11.0151 18.0423C14.4715 18.0423 16.542 17.5026 17.7735 16.3718C18.9857 15.2587 19.5651 13.4011 19.5651 10.2533C19.5651 7.10491 18.9857 5.24741 17.7735 4.13443C16.5421 3.00376 14.4716 2.46423 11.0151 2.46423C7.55804 2.46423 5.4873 3.00377 4.25573 4.13445ZM3.2413 3.02949C4.91616 1.49184 7.4959 0.964233 11.0151 0.964233C14.5338 0.964233 17.1133 1.49184 18.788 3.02952C20.482 4.58487 21.0651 6.99689 21.0651 10.2533C21.0651 13.5092 20.482 15.9212 18.788 17.4767C17.1133 19.0145 14.5338 19.5423 11.0151 19.5423C7.49584 19.5423 4.91612 19.0145 3.24127 17.4767C1.54717 15.9212 0.964111 13.5092 0.964111 10.2533C0.964111 6.99689 1.54716 4.58485 3.2413 3.02949Z" fill="#5557DD"></path>
  </symbol>
  <symbol fill="none" xmlns="http://www.w3.org/2000/svg" viewBox="0 0 24 24" id="voice">
    <g id="Iconly/Curved/Light/Voice">
      <g id="Voice">
        <path id="Stroke 1" d="M6.36487 13.6785C6.36487 16.8095 8.90287 19.3475 12.0339 19.3475C15.1659 19.3475 17.7039 16.8095 17.7039 13.6785" stroke="#3B3ECF" stroke-width="1.5" stroke-linecap="round" stroke-linejoin="round"></path>
        <path id="Stroke 3" d="M17.7037 10.4231V8.16912C17.7037 5.03812 15.1657 2.50012 12.0337 2.50012C8.90275 2.50012 6.36475 5.03812 6.36475 8.16912V10.4231" stroke="#3B3ECF" stroke-width="1.5" stroke-linecap="round" stroke-linejoin="round"></path>
        <path id="Stroke 5" d="M12.0338 21.4998V19.3478" stroke="#3B3ECF" stroke-width="1.5" stroke-linecap="round" stroke-linejoin="round"></path>
        <path id="Stroke 7" d="M4.90002 13.6785H19.168" stroke="#3B3ECF" stroke-width="1.5" stroke-linecap="round" stroke-linejoin="round"></path>
      </g>
    </g>
  </symbol>
  <symbol fill="none" xmlns="http://www.w3.org/2000/svg" viewBox="0 0 24 24" id="play">
    <g id="Iconly/Curved/Light/Play">
      <g id="Play">
        <path id="Stroke 1" fill-rule="evenodd" clip-rule="evenodd" d="M2.75 12.0002C2.75 18.9372 5.063 21.2502 12 21.2502C18.937 21.2502 21.25 18.9372 21.25 12.0002C21.25 5.06324 18.937 2.75024 12 2.75024C5.063 2.75024 2.75 5.06324 2.75 12.0002Z" stroke="white" stroke-width="1.5" stroke-linecap="round" stroke-linejoin="round"></path>
        <path id="Stroke 3" fill-rule="evenodd" clip-rule="evenodd" d="M15.416 11.8557C15.416 10.9517 10.832 8.05965 10.312 8.57965C9.79304 9.09965 9.74204 14.5627 10.312 15.1317C10.883 15.7027 15.416 12.7597 15.416 11.8557Z" stroke="white" stroke-width="1.5" stroke-linecap="round" stroke-linejoin="round"></path>
      </g>
    </g>
  </symbol>
  <symbol fill="none" xmlns="http://www.w3.org/2000/svg" viewBox="0 0 24 24" id="edit">
    <g id="Iconly/Curved/Light/Edit">
      <g id="Edit">
        <path id="Stroke 1" d="M13.3352 19.5079H19.7122" stroke="white" stroke-width="1.5" stroke-linecap="round" stroke-linejoin="round"></path>
        <path id="Stroke 3" fill-rule="evenodd" clip-rule="evenodd" d="M16.0578 4.85901V4.85901C14.7138 3.85101 12.8078 4.12301 11.7998 5.46601C11.7998 5.46601 6.78679 12.144 5.04779 14.461C3.30879 16.779 4.95379 19.651 4.95379 19.651C4.95379 19.651 8.19779 20.397 9.91179 18.112C11.6268 15.828 16.6638 9.11701 16.6638 9.11701C17.6718 7.77401 17.4008 5.86701 16.0578 4.85901Z" stroke="white" stroke-width="1.5" stroke-linecap="round" stroke-linejoin="round"></path>
        <path id="Stroke 5" d="M10.5042 7.21149L15.3682 10.8625" stroke="white" stroke-width="1.5" stroke-linecap="round" stroke-linejoin="round"></path>
      </g>
    </g>
  </symbol>
  <symbol fill="none" xmlns="http://www.w3.org/2000/svg" viewBox="0 0 24 24" id="message">
    <g id="Iconly/Curved/Light/Message">
      <g id="Message">
        <path id="Stroke 1" d="M17.5448 9.01913C17.5448 9.01913 14.3348 12.8718 11.9869 12.8718C9.64004 12.8718 6.39392 9.01913 6.39392 9.01913" stroke="white" stroke-width="1.5" stroke-linecap="round" stroke-linejoin="round"></path>
        <path id="Stroke 3" fill-rule="evenodd" clip-rule="evenodd" d="M2.45203 11.9689C2.45203 5.13081 4.83298 2.85211 11.9758 2.85211C19.1187 2.85211 21.4996 5.13081 21.4996 11.9689C21.4996 18.806 19.1187 21.0857 11.9758 21.0857C4.83298 21.0857 2.45203 18.806 2.45203 11.9689Z" stroke="white" stroke-width="1.5" stroke-linecap="round" stroke-linejoin="round"></path>
      </g>
    </g>
  </symbol>
</svg>




