<svg width="0" height="0" class="hidden">
  <symbol fill="none" xmlns="http://www.w3.org/2000/svg" viewBox="0 0 24 25" id="3-users">
    <path fill-rule="evenodd" clip-rule="evenodd" d="M11.9726 21.1984C8.73355 21.1984 5.96655 20.6884 5.96655 18.6464C5.96655 16.6045 8.71555 14.8268 11.9726 14.8268C15.2116 14.8268 17.9786 16.5878 17.9786 18.6287C17.9786 20.6697 15.2296 21.1984 11.9726 21.1984Z" stroke="#5557DD" stroke-width="1.5" stroke-linecap="round" stroke-linejoin="round"></path>
    <path fill-rule="evenodd" clip-rule="evenodd" d="M11.9726 11.9153C14.0986 11.9153 15.8226 10.1221 15.8226 7.90944C15.8226 5.69679 14.0986 3.90253 11.9726 3.90253C9.84657 3.90253 8.12257 5.69679 8.12257 7.90944C8.11657 10.1138 9.82657 11.908 11.9456 11.9153H11.9726Z" stroke="#5557DD" stroke-width="1.5" stroke-linecap="round" stroke-linejoin="round"></path>
    <path d="M18.362 10.8151C19.599 10.4706 20.511 9.29667 20.511 7.89893C20.511 6.44083 19.518 5.22314 18.196 4.94214" stroke="#5557DD" stroke-width="1.5" stroke-linecap="round" stroke-linejoin="round"></path>
    <path d="M18.9431 14.0964C20.6971 14.0964 22.1951 15.3339 22.1951 16.4392C22.1951 17.0897 21.6781 17.7984 20.8941 17.9899" stroke="#5557DD" stroke-width="1.5" stroke-linecap="round" stroke-linejoin="round"></path>
    <path d="M5.58384 10.8151C4.34584 10.4706 3.43384 9.29667 3.43384 7.89893C3.43384 6.44083 4.42784 5.22314 5.74884 4.94214" stroke="#5557DD" stroke-width="1.5" stroke-linecap="round" stroke-linejoin="round"></path>
    <path d="M5.00176 14.0964C3.24776 14.0964 1.74976 15.3339 1.74976 16.4392C1.74976 17.0897 2.26676 17.7984 3.05176 17.9899" stroke="#5557DD" stroke-width="1.5" stroke-linecap="round" stroke-linejoin="round"></path>
  </symbol>
  <symbol fill="none" xmlns="http://www.w3.org/2000/svg" viewBox="0 0 20 20" id="buy">
    <path d="M3.40901 4.64197C5.71901 4.53297 8.02801 4.41997 10.339 4.33797C11.412 4.29997 12.485 4.26697 13.558 4.25297C14.583 4.23997 15.693 4.10597 16.656 4.53897C19.959 6.02597 18.566 12.001 16.283 13.775C14.692 15.011 12.148 15.103 10.217 15.053C8.42501 15.008 6.26301 14.803 4.75501 13.729C2.15601 11.878 3.51401 6.83397 3.42901 3.38497C3.48001 1.45497 1.38501 1.14197 1.38501 1.14197" stroke="#5557DD" stroke-width="1.5" stroke-linecap="round" stroke-linejoin="round"></path>
    <path d="M10.885 8.14197H13.658" stroke="#5557DD" stroke-width="1.5" stroke-linecap="round" stroke-linejoin="round"></path>
    <path fill-rule="evenodd" clip-rule="evenodd" d="M5.149 17.7689C5.449 17.7689 5.693 18.0129 5.693 18.3129C5.693 18.6139 5.449 18.8579 5.149 18.8579C4.848 18.8579 4.604 18.6139 4.604 18.3129C4.604 18.0129 4.848 17.7689 5.149 17.7689Z" fill="black"></path>
    <path fill-rule="evenodd" clip-rule="evenodd" d="M5.149 17.7689C5.449 17.7689 5.693 18.0129 5.693 18.3129C5.693 18.6139 5.449 18.8579 5.149 18.8579C4.848 18.8579 4.604 18.6139 4.604 18.3129C4.604 18.0129 4.848 17.7689 5.149 17.7689Z" stroke="#5557DD" stroke-width="1.5" stroke-linecap="round" stroke-linejoin="round"></path>
    <path fill-rule="evenodd" clip-rule="evenodd" d="M15.48 17.7689C15.781 17.7689 16.025 18.0129 16.025 18.3129C16.025 18.6139 15.781 18.8579 15.48 18.8579C15.18 18.8579 14.936 18.6139 14.936 18.3129C14.936 18.0129 15.18 17.7689 15.48 17.7689Z" fill="black"></path>
    <path fill-rule="evenodd" clip-rule="evenodd" d="M15.48 17.7689C15.781 17.7689 16.025 18.0129 16.025 18.3129C16.025 18.6139 15.781 18.8579 15.48 18.8579C15.18 18.8579 14.936 18.6139 14.936 18.3129C14.936 18.0129 15.18 17.7689 15.48 17.7689Z" stroke="#5557DD" stroke-width="1.5" stroke-linecap="round" stroke-linejoin="round"></path>
  </symbol>
  <symbol fill="none" xmlns="http://www.w3.org/2000/svg" viewBox="0 0 22 22" id="calling">
    <path d="M13.3525 0.855896C17.0535 1.28365 19.9775 4.32266 20.3935 8.1745" stroke="white" stroke-width="1.5" stroke-linecap="round" stroke-linejoin="round"></path>
    <path d="M13.3525 4.54327C15.1235 4.90129 16.5075 6.34274 16.8525 8.18592" stroke="white" stroke-width="1.5" stroke-linecap="round" stroke-linejoin="round"></path>
    <path fill-rule="evenodd" clip-rule="evenodd" d="M6.70049 14.957C-0.197496 7.77704 0.783381 4.48922 1.51055 3.42973C1.60396 3.25849 3.90647 -0.328729 6.37459 1.77588C12.5008 7.0269 4.7451 6.28448 9.8894 11.6394C15.0348 16.9931 14.3203 8.9216 19.3659 15.2962C21.3882 17.8659 17.9413 20.2622 17.7778 20.3583C16.7598 21.1162 13.5995 22.137 6.70049 14.957Z" stroke="white" stroke-width="1.5" stroke-linecap="round" stroke-linejoin="round"></path>
  </symbol>
  <symbol fill="none" xmlns="http://www.w3.org/2000/svg" viewBox="0 0 18 18" id="category">
    <path fill-rule="evenodd" clip-rule="evenodd" d="M15.7503 5.00535C15.7503 6.5268 14.5164 7.7607 12.9949 7.7607C11.4735 7.7607 10.2402 6.5268 10.2402 5.00535C10.2402 3.4839 11.4735 2.25 12.9949 2.25C14.5164 2.25 15.7503 3.4839 15.7503 5.00535Z" stroke="#5557DD" stroke-width="1.5" stroke-linecap="round" stroke-linejoin="round"></path>
    <path fill-rule="evenodd" clip-rule="evenodd" d="M7.76003 5.00535C7.76003 6.5268 6.5268 7.7607 5.00467 7.7607C3.4839 7.7607 2.25 6.5268 2.25 5.00535C2.25 3.4839 3.4839 2.25 5.00467 2.25C6.5268 2.25 7.76003 3.4839 7.76003 5.00535Z" stroke="#5557DD" stroke-width="1.5" stroke-linecap="round" stroke-linejoin="round"></path>
    <path fill-rule="evenodd" clip-rule="evenodd" d="M15.7503 12.9465C15.7503 14.468 14.5164 15.7012 12.9949 15.7012C11.4735 15.7012 10.2402 14.468 10.2402 12.9465C10.2402 11.4251 11.4735 10.1912 12.9949 10.1912C14.5164 10.1912 15.7503 11.4251 15.7503 12.9465Z" stroke="#5557DD" stroke-width="1.5" stroke-linecap="round" stroke-linejoin="round"></path>
    <path fill-rule="evenodd" clip-rule="evenodd" d="M7.76003 12.9465C7.76003 14.468 6.5268 15.7012 5.00467 15.7012C3.4839 15.7012 2.25 14.468 2.25 12.9465C2.25 11.4251 3.4839 10.1912 5.00467 10.1912C6.5268 10.1912 7.76003 11.4251 7.76003 12.9465Z" stroke="#5557DD" stroke-width="1.5" stroke-linecap="round" stroke-linejoin="round"></path>
  </symbol>
  <symbol fill="none" xmlns="http://www.w3.org/2000/svg" viewBox="0 0 24 24" id="chat">
    <path fill-rule="evenodd" clip-rule="evenodd" d="M14.9395 12.4131C14.9395 11.8608 15.3872 11.4131 15.9395 11.4131H15.9485C16.5007 11.4131 16.9485 11.8608 16.9485 12.4131C16.9485 12.9654 16.5007 13.4131 15.9485 13.4131H15.9395C15.3872 13.4131 14.9395 12.9654 14.9395 12.4131Z" fill="white"></path>
    <path fill-rule="evenodd" clip-rule="evenodd" d="M10.9304 12.4131C10.9304 11.8608 11.3781 11.4131 11.9304 11.4131H11.9394C12.4917 11.4131 12.9394 11.8608 12.9394 12.4131C12.9394 12.9654 12.4917 13.4131 11.9394 13.4131H11.9304C11.3781 13.4131 10.9304 12.9654 10.9304 12.4131Z" fill="white"></path>
    <path fill-rule="evenodd" clip-rule="evenodd" d="M6.92139 12.4131C6.92139 11.8608 7.3691 11.4131 7.92139 11.4131H7.93039C8.48267 11.4131 8.93039 11.8608 8.93039 12.4131C8.93039 12.9654 8.48267 13.4131 7.93039 13.4131H7.92139C7.3691 13.4131 6.92139 12.9654 6.92139 12.4131Z" fill="white"></path>
    <path fill-rule="evenodd" clip-rule="evenodd" d="M18.5407 5.45745C14.9324 1.84768 9.06909 1.84768 5.46075 5.45745L5.46059 5.4576C2.6347 8.28294 2.02101 12.471 3.60707 15.8985C3.6124 15.91 3.61743 15.9217 3.62217 15.9334C3.71434 16.1624 3.71226 16.4219 3.70812 16.5687C3.70291 16.753 3.68252 16.9653 3.65735 17.1813C3.63356 17.3855 3.60335 17.6105 3.57263 17.8392L3.56625 17.8868C3.53298 18.1346 3.49911 18.389 3.46954 18.6438C3.40959 19.1606 3.37193 19.6431 3.38868 20.0291C3.39703 20.2215 3.41806 20.364 3.44492 20.4617C3.45396 20.4946 3.46225 20.5173 3.46836 20.5319C3.48296 20.538 3.50562 20.5463 3.53854 20.5553C3.63627 20.5821 3.77884 20.6031 3.97121 20.6115C4.35724 20.6282 4.83978 20.5906 5.35646 20.5306C5.61122 20.5011 5.86561 20.4673 6.11342 20.434L6.16065 20.4277C6.38944 20.397 6.61452 20.3668 6.8188 20.343C7.03477 20.3179 7.24708 20.2976 7.43135 20.2924C7.57812 20.2883 7.8376 20.2862 8.06653 20.3784C8.07823 20.3831 8.0898 20.3881 8.10124 20.3934C11.5294 21.9789 15.7159 21.3659 18.5407 18.5398L18.5408 18.5397C22.1496 14.9303 22.1568 9.07308 18.5408 5.45758L18.5407 5.45745ZM19.6014 4.39686C15.4072 0.201164 8.59401 0.20121 4.39988 4.397C1.13584 7.66053 0.414583 12.4849 2.20893 16.448C2.20946 16.4655 2.20971 16.4912 2.20871 16.5263C2.20541 16.6432 2.19128 16.8031 2.16743 17.0078C2.14523 17.1983 2.11669 17.4108 2.0854 17.6439L2.07958 17.6872C2.04639 17.9345 2.01084 18.2012 1.97954 18.4709C1.91777 19.0033 1.86794 19.5836 1.89009 20.0942C1.9012 20.3501 1.93123 20.6143 1.99855 20.8593C2.06435 21.0986 2.18073 21.375 2.40308 21.5974L2.40343 21.5977C2.62584 21.8199 2.90218 21.9361 3.14144 22.0018C3.38632 22.069 3.65043 22.099 3.90631 22.1101C4.41677 22.1322 4.99698 22.0824 5.52922 22.0207C5.79892 21.9894 6.06555 21.9539 6.31278 21.9207L6.35571 21.915C6.58889 21.8837 6.80149 21.8552 6.99215 21.833C7.19678 21.8092 7.3566 21.7951 7.47349 21.7918C7.50871 21.7908 7.53438 21.7911 7.55191 21.7916C11.5153 23.5851 16.3382 22.865 19.6015 19.6003C23.7952 15.406 23.8041 8.59902 19.6014 4.39686Z" fill="white"></path>
  </symbol>
  <symbol fill="none" xmlns="http://www.w3.org/2000/svg" viewBox="0 0 24 24" id="discount">
    <path fill-rule="evenodd" clip-rule="evenodd" d="M5.3042 5.3042C4.08123 6.52717 3.50024 8.57334 3.50024 12.0002C3.50024 15.4271 4.08123 17.4733 5.3042 18.6963C6.52717 19.9193 8.57334 20.5002 12.0002 20.5002C15.4271 20.5002 17.4733 19.9193 18.6963 18.6963C19.9193 17.4733 20.5002 15.4271 20.5002 12.0002C20.5002 8.57334 19.9193 6.52717 18.6963 5.3042C17.4733 4.08123 15.4271 3.50024 12.0002 3.50024C8.57334 3.50024 6.52717 4.08123 5.3042 5.3042ZM4.24354 4.24354C5.91132 2.57576 8.49015 2.00024 12.0002 2.00024C15.5103 2.00024 18.0892 2.57576 19.7569 4.24354C21.4247 5.91132 22.0002 8.49015 22.0002 12.0002C22.0002 15.5103 21.4247 18.0892 19.7569 19.7569C18.0892 21.4247 15.5103 22.0002 12.0002 22.0002C8.49015 22.0002 5.91132 21.4247 4.24354 19.7569C2.57576 18.0892 2.00024 15.5103 2.00024 12.0002C2.00024 8.49015 2.57576 5.91132 4.24354 4.24354Z" fill="white"></path>
    <path fill-rule="evenodd" clip-rule="evenodd" d="M15.1003 8.89972C15.3932 9.19262 15.3932 9.66749 15.1003 9.96038L9.96026 15.1004C9.66737 15.3933 9.19249 15.3933 8.8996 15.1004C8.60671 14.8075 8.60671 14.3326 8.8996 14.0397L14.0396 8.89972C14.3325 8.60683 14.8074 8.60683 15.1003 8.89972Z" fill="white"></path>
    <path fill-rule="evenodd" clip-rule="evenodd" d="M13.4956 14.5001C13.4956 13.9478 13.9433 13.5001 14.4956 13.5001H14.5046C15.0569 13.5001 15.5046 13.9478 15.5046 14.5001C15.5046 15.0524 15.0569 15.5001 14.5046 15.5001H14.4956C13.9433 15.5001 13.4956 15.0524 13.4956 14.5001Z" fill="white"></path>
    <path fill-rule="evenodd" clip-rule="evenodd" d="M8.49561 9.50012C8.49561 8.94784 8.94332 8.50012 9.49561 8.50012H9.50461C10.0569 8.50012 10.5046 8.94784 10.5046 9.50012C10.5046 10.0524 10.0569 10.5001 9.50461 10.5001H9.49561C8.94332 10.5001 8.49561 10.0524 8.49561 9.50012Z" fill="white"></path>
  </symbol>
  <symbol fill="none" xmlns="http://www.w3.org/2000/svg" viewBox="0 0 21 21" id="mail">
    <path d="M16.0928 7.41837C16.0928 7.41837 12.8828 11.428 10.5349 11.428C8.18807 11.428 4.94196 7.41837 4.94196 7.41837M1 10.4884C1 3.37157 3.38095 1 10.5238 1C17.6667 1 20.0476 3.37157 20.0476 10.4884C20.0476 17.6041 17.6667 19.9767 10.5238 19.9767C3.38095 19.9767 1 17.6041 1 10.4884Z" stroke="white" stroke-width="1.5" stroke-linecap="round" stroke-linejoin="round"></path>
  </symbol>
  <symbol fill="none" xmlns="http://www.w3.org/2000/svg" viewBox="0 0 15 18" id="play">
    <path d="M15 9L0 17.6603L0 0.339746L15 9Z" fill="#5557DD"></path>
  </symbol>
  <symbol fill="none" xmlns="http://www.w3.org/2000/svg" viewBox="0 0 16 21" id="profile">
    <path fill-rule="evenodd" clip-rule="evenodd" d="M7.84455 20.0465C4.15273 20.0465 1 19.472 1 17.1712C1 14.8705 4.13273 12.7465 7.84455 12.7465C11.5364 12.7465 14.6891 14.8499 14.6891 17.1507C14.6891 19.4505 11.5564 20.0465 7.84455 20.0465Z" stroke="#5557DD" stroke-width="1.5" stroke-linecap="round" stroke-linejoin="round"></path>
    <path fill-rule="evenodd" clip-rule="evenodd" d="M7.83725 9.55824C10.26 9.55824 12.2236 7.59461 12.2236 5.17188C12.2236 2.74915 10.26 0.784607 7.83725 0.784607C5.41452 0.784607 3.44998 2.74915 3.44998 5.17188C3.4418 7.58643 5.3918 9.55006 7.80634 9.55824C7.81725 9.55824 7.82725 9.55824 7.83725 9.55824Z" stroke="#5557DD" stroke-width="1.5" stroke-linecap="round" stroke-linejoin="round"></path>
  </symbol>
  <symbol xmlns="http://www.w3.org/2000/svg" fill="none" stroke-width="1.5" stroke="currentColor" viewBox="0 0 24 24" id="puzzle">
    <path stroke-linecap="round" stroke-linejoin="round" d="M14.25 6.087c0-.355.186-.676.401-.959.221-.29.349-.634.349-1.003 0-1.036-1.007-1.875-2.25-1.875s-2.25.84-2.25 1.875c0 .369.128.713.349 1.003.215.283.401.604.401.959v0a.64.64 0 01-.657.643 48.39 48.39 0 01-4.163-.3c.186 1.613.293 3.25.315 4.907a.656.656 0 01-.658.663v0c-.355 0-.676-.186-.959-.401a1.647 1.647 0 00-1.003-.349c-1.036 0-1.875 1.007-1.875 2.25s.84 2.25 1.875 2.25c.369 0 .713-.128 1.003-.349.283-.215.604-.401.959-.401v0c.31 0 .555.26.532.57a48.039 48.039 0 01-.642 5.056c1.518.19 3.058.309 4.616.354a.64.64 0 00.657-.643v0c0-.355-.186-.676-.401-.959a1.647 1.647 0 01-.349-1.003c0-1.035 1.008-1.875 2.25-1.875 1.243 0 2.25.84 2.25 1.875 0 .369-.128.713-.349 1.003-.215.283-.4.604-.4.959v0c0 .333.277.599.61.58a48.1 48.1 0 005.427-.63 48.05 48.05 0 00.582-4.717.532.532 0 00-.533-.57v0c-.355 0-.676.186-.959.401-.29.221-.634.349-1.003.349-1.035 0-1.875-1.007-1.875-2.25s.84-2.25 1.875-2.25c.37 0 .713.128 1.003.349.283.215.604.401.96.401v0a.656.656 0 00.658-.663 48.422 48.422 0 00-.37-5.36c-1.886.342-3.81.574-5.766.689a.578.578 0 01-.61-.58v0z"></path>
  </symbol>
  <symbol fill="none" xmlns="http://www.w3.org/2000/svg" viewBox="0 0 45 45" id="radionil">
    <path fill-rule="evenodd" clip-rule="evenodd" d="M35.2085 23.8511H9.79102C9.01477 23.8511 8.38477 24.4811 8.38477 25.2573C8.38477 26.0336 9.01477 26.6636 9.79102 26.6636H11.5629C12.1985 31.6229 16.1323 35.5586 21.0935 36.1923V39.1904C21.0935 39.9667 21.7235 40.5967 22.4998 40.5967C23.276 40.5967 23.906 39.9667 23.906 39.1904V36.1942C28.8673 35.5586 32.801 31.6229 33.4366 26.6636H35.2085C35.9848 26.6636 36.6148 26.0336 36.6148 25.2573C36.6148 24.4811 35.9848 23.8511 35.2085 23.8511Z" fill="#5557DD"></path>
    <path opacity="0.4" fill-rule="evenodd" clip-rule="evenodd" d="M22.5066 4.40332C16.4129 4.40332 11.4629 9.35332 11.4629 15.4471V19.4596C11.4629 19.9846 11.8754 20.3971 12.4004 20.3971H32.5941C33.1191 20.3971 33.5316 19.9846 33.5316 19.4596V15.4471C33.5316 9.35332 28.5816 4.40332 22.5066 4.40332Z" fill="#5557DD"></path>
    <path d="M19.6934 16.9469H25.2996C26.0684 16.9469 26.7059 16.3094 26.7059 15.5407C26.7059 14.7719 26.0684 14.1344 25.2996 14.1344H19.6934C18.9246 14.1344 18.2871 14.7719 18.2871 15.5407C18.2871 16.3094 18.9246 16.9469 19.6934 16.9469Z" fill="#5557DD"></path>
    <path d="M23.4434 8.94067H21.5496C20.7809 8.94067 20.1434 9.57817 20.1434 10.3469C20.1434 11.1157 20.7809 11.7532 21.5496 11.7532H23.4434C24.2121 11.7532 24.8496 11.1157 24.8496 10.3469C24.8496 9.57817 24.2121 8.94067 23.4434 8.94067Z" fill="#5557DD"></path>
  </symbol>
  <symbol fill="none" xmlns="http://www.w3.org/2000/svg" viewBox="0 0 12 17" id="rec-done">
    <path fill-rule="evenodd" clip-rule="evenodd" d="M10.7156 8.99826H0.535137C0.239742 8.99826 0 9.27494 0 9.61584C0 9.95674 0.239742 10.2334 0.535137 10.2334H1.25936C1.50338 12.5407 3.09095 14.3728 5.09023 14.6545V16.0568C5.09023 16.3977 5.32997 16.6743 5.62537 16.6743C5.92076 16.6743 6.1605 16.3977 6.1605 16.0568V14.6545C8.16049 14.3728 9.74735 12.5407 9.99137 10.2334H10.7156C11.011 10.2334 11.2507 9.95674 11.2507 9.61584C11.2507 9.27494 11.011 8.99826 10.7156 8.99826Z" fill="#2AD026"></path>
    <path opacity="0.4" fill-rule="evenodd" clip-rule="evenodd" d="M1.57954 7.34754H9.6701C9.86775 7.34754 10.0269 7.16309 10.0269 6.93582V5.07979C10.0269 2.27928 8.05256 0 5.62446 0C3.19779 0 1.22278 2.27928 1.22278 5.07979V6.93582C1.22278 7.16309 1.38261 7.34754 1.57954 7.34754Z" fill="#2AD026"></path>
  </symbol>
  <symbol fill="none" xmlns="http://www.w3.org/2000/svg" viewBox="0 0 18 21" id="recording">
    <path fill-rule="evenodd" clip-rule="evenodd" d="M14.0345 10.9862H3.90283C3.59341 10.9862 3.34229 11.2764 3.34229 11.634C3.34229 11.9915 3.59341 12.2817 3.90283 12.2817H4.60911C4.86248 14.5661 6.43051 16.3789 8.4081 16.6708V18.0518C8.4081 18.4094 8.65923 18.6996 8.96865 18.6996C9.27807 18.6996 9.52919 18.4094 9.52919 18.0518V16.6717C11.5068 16.3789 13.0748 14.5661 13.3282 12.2817H14.0345C14.3439 12.2817 14.595 11.9915 14.595 11.634C14.595 11.2764 14.3439 10.9862 14.0345 10.9862Z" fill="#FF0000"></path>
    <path opacity="0.4" fill-rule="evenodd" clip-rule="evenodd" d="M8.97135 2.02829C6.54233 2.02829 4.56921 4.30835 4.56921 7.11525V8.96348C4.56921 9.20531 4.73364 9.39531 4.94291 9.39531H12.9923C13.2016 9.39531 13.366 9.20531 13.366 8.96348V7.11525C13.366 4.30835 11.3929 2.02829 8.97135 2.02829Z" fill="#FF0000"></path>
    <path d="M7.84997 7.80612H10.0847C10.3911 7.80612 10.6452 7.51247 10.6452 7.15837C10.6452 6.80427 10.3911 6.51063 10.0847 6.51063H7.84997C7.54354 6.51063 7.28943 6.80427 7.28943 7.15837C7.28943 7.51247 7.54354 7.80612 7.84997 7.80612Z" fill="#FF0000"></path>
    <path d="M9.34475 4.11829H8.58989C8.28346 4.11829 8.02935 4.41193 8.02935 4.76603C8.02935 5.12013 8.28346 5.41378 8.58989 5.41378H9.34475C9.65119 5.41378 9.9053 5.12013 9.9053 4.76603C9.9053 4.41193 9.65119 4.11829 9.34475 4.11829Z" fill="#FF0000"></path>
  </symbol>
  <symbol fill="none" xmlns="http://www.w3.org/2000/svg" viewBox="0 0 21 21" id="search">
    <path fill-rule="evenodd" clip-rule="evenodd" d="M9.56095 1.06152C14.2886 1.06152 18.1219 4.89282 18.1219 9.62006C18.1219 14.3473 14.2886 18.1786 9.56095 18.1786C4.83238 18.1786 1 14.3473 1 9.62006C1 4.89282 4.83238 1.06152 9.56095 1.06152Z" stroke="#5557DD" stroke-width="1.5" stroke-linecap="round" stroke-linejoin="round"></path>
    <path fill-rule="evenodd" clip-rule="evenodd" d="M18.1845 16.8304C18.9635 16.8304 19.595 17.4626 19.595 18.2405C19.595 19.0203 18.9635 19.6515 18.1845 19.6515C17.4054 19.6515 16.773 19.0203 16.773 18.2405C16.773 17.4626 17.4054 16.8304 18.1845 16.8304Z" stroke="#5557DD" stroke-width="1.5" stroke-linecap="round" stroke-linejoin="round"></path>
  </symbol>
  <symbol fill="none" xmlns="http://www.w3.org/2000/svg" viewBox="0 0 24 24" id="services">
    <path fill-rule="evenodd" clip-rule="evenodd" d="M11.9612 13.1389C12.3754 13.1389 12.7112 13.4747 12.7112 13.8889V16.5169C12.7112 16.9311 12.3754 17.2669 11.9612 17.2669C11.547 17.2669 11.2112 16.9311 11.2112 16.5169V13.8889C11.2112 13.4747 11.547 13.1389 11.9612 13.1389Z" fill="white"></path>
    <path fill-rule="evenodd" clip-rule="evenodd" d="M2.21816 11.0478C2.4557 10.7084 2.92334 10.6259 3.26268 10.8634L3.27447 10.8717C5.56289 12.2766 8.60547 13.1418 11.9566 13.1418C15.3056 13.1418 18.355 12.2777 20.6437 10.8747L20.6497 10.8704C20.9852 10.6275 21.4541 10.7025 21.697 11.038C21.94 11.3734 21.865 11.8424 21.5295 12.0853L21.5005 12.1063C21.4854 12.1172 21.4698 12.1276 21.454 12.1374C18.9012 13.7099 15.5641 14.6418 11.9566 14.6418C8.34869 14.6418 5.0206 13.7098 2.4691 12.1373C2.45666 12.1297 2.44445 12.1216 2.43249 12.1133L2.40249 12.0923C2.06315 11.8547 1.98062 11.3871 2.21816 11.0478Z" fill="white"></path>
    <path fill-rule="evenodd" clip-rule="evenodd" d="M5.26404 7.50242C4.07205 8.56396 3.50024 10.3339 3.50024 13.3508C3.50024 16.3677 4.07205 18.1377 5.26404 19.1992C6.48242 20.2843 8.53513 20.8038 11.9612 20.8038C15.3879 20.8038 17.4406 20.2843 18.6588 19.1993C19.8507 18.1377 20.4222 16.3678 20.4222 13.3508C20.4222 10.3338 19.8507 8.56392 18.6588 7.5024C17.4406 6.41738 15.3879 5.89783 11.9612 5.89783C8.53513 5.89783 6.48242 6.41737 5.26404 7.50242ZM4.26645 6.38224C5.92657 4.90379 8.47936 4.39783 11.9612 4.39783C15.4436 4.39783 17.9964 4.90377 19.6564 6.38226C21.3428 7.88424 21.9222 10.2158 21.9222 13.3508C21.9222 16.4858 21.3428 18.8174 19.6564 20.3194C17.9964 21.7979 15.4436 22.3038 11.9612 22.3038C8.47936 22.3038 5.92657 21.7979 4.26645 20.3194C2.57994 18.8175 2.00024 16.4859 2.00024 13.3508C2.00024 10.2157 2.57994 7.88419 4.26645 6.38224Z" fill="white"></path>
    <path fill-rule="evenodd" clip-rule="evenodd" d="M7.94873 4.73944C7.94873 3.13741 9.13523 1.70044 10.7587 1.70044H13.1637C14.7872 1.70044 15.9737 3.13741 15.9737 4.73944V5.36944C15.9737 5.78365 15.6379 6.11944 15.2237 6.11944C14.8095 6.11944 14.4737 5.78365 14.4737 5.36944V4.73944C14.4737 3.81347 13.8142 3.20044 13.1637 3.20044H10.7587C10.1082 3.20044 9.44873 3.81347 9.44873 4.73944V5.36944C9.44873 5.78365 9.11294 6.11944 8.69873 6.11944C8.28452 6.11944 7.94873 5.78365 7.94873 5.36944V4.73944Z" fill="white"></path>
  </symbol>
  <symbol fill="none" xmlns="http://www.w3.org/2000/svg" viewBox="0 0 20 20" id="star">
    <path fill-rule="evenodd" clip-rule="evenodd" d="M9.99999 1.00012C7.96385 1.00012 7.77134 4.54664 6.55911 5.7997C5.34689 7.05275 1.5782 5.62004 1.05459 7.84415C0.532075 10.0694 3.92235 10.8244 4.34036 12.7336C4.76057 14.6427 2.68922 17.325 4.45916 18.66C6.22911 19.9937 8.13435 16.9748 9.99999 16.9748C11.8656 16.9748 13.7709 19.9937 15.5408 18.66C17.3108 17.325 15.2405 14.6427 15.6596 12.7336C16.0787 10.8244 19.4679 10.0694 18.9454 7.84415C18.4229 5.62004 14.6531 7.05275 13.442 5.7997C12.2297 4.54664 12.0361 1.00012 9.99999 1.00012Z" stroke="#FFC700" stroke-width="1.5" stroke-linecap="round" stroke-linejoin="round"></path>
  </symbol>
  <symbol fill="none" xmlns="http://www.w3.org/2000/svg" viewBox="0 0 60 60" id="student">
    <path d="M40.6031 35.175C40.6034 36.6498 40.3096 38.1098 39.7388 39.4696C39.168 40.8294 38.3317 42.0618 37.2789 43.0945C36.2261 44.1272 34.9779 44.9396 33.6073 45.4841C32.2368 46.0286 30.7714 46.2943 29.2969 46.2656C26.3458 46.1487 23.5567 44.8854 21.5224 42.7443C19.4881 40.6032 18.3691 37.7532 18.4031 34.8V19.35C18.4027 19.3281 18.41 19.3067 18.4237 19.2895C18.4374 19.2724 18.4566 19.2606 18.4781 19.2563C22.2279 18.6908 26.0114 18.3776 29.8031 18.3188C33.4363 18.3761 37.0609 18.6893 40.65 19.2563C40.6707 19.2608 40.689 19.2729 40.7011 19.2903C40.7133 19.3077 40.7185 19.329 40.7156 19.35L40.6031 35.175Z" stroke="#5557DD" stroke-width="2.8125"></path>
    <path d="M18.4031 24.375L8.4375 19.1906C8.42165 19.1829 8.40828 19.171 8.39893 19.156C8.38957 19.1411 8.38461 19.1239 8.38461 19.1062C8.38461 19.0886 8.38957 19.0714 8.39893 19.0565C8.40828 19.0415 8.42165 19.0296 8.4375 19.0219L29.5219 8.30625H29.6062L50.625 18.9094C50.6409 18.9171 50.6542 18.929 50.6636 18.944C50.6729 18.9589 50.6779 18.9761 50.6779 18.9937C50.6779 19.0114 50.6729 19.0286 50.6636 19.0435C50.6542 19.0585 50.6409 19.0704 50.625 19.0781L40.7156 24.375" stroke="#5557DD" stroke-width="2.8125"></path>
    <path d="M18.4031 30.1781H16.5937C16.5937 30.1781 13.8375 30.1781 13.8375 34.4156C13.8375 38.325 16.5844 38.325 16.5844 38.325L18.9375 38.2781" stroke="#5557DD" stroke-width="2.8125"></path>
    <path d="M40.5937 30.6562H42.4031C42.4031 30.6562 45.2156 30.6562 45.2156 34.9031C45.2156 38.8125 42.4594 38.8125 42.4594 38.8125H39.9844" stroke="#5557DD" stroke-width="2.8125"></path>
    <path d="M49.425 42.225V19.7156" stroke="#5557DD" stroke-width="2.8125"></path>
    <path d="M49.425 46.5656C50.621 46.5656 51.5906 45.596 51.5906 44.4C51.5906 43.204 50.621 42.2344 49.425 42.2344C48.229 42.2344 47.2594 43.204 47.2594 44.4C47.2594 45.596 48.229 46.5656 49.425 46.5656Z" stroke="#5557DD" stroke-width="2.8125"></path>
    <path d="M35.4 44.5594V51.7031H24.2719V44.9531" stroke="#5557DD" stroke-width="2.8125"></path>
    <path d="M40.7156 28.2469C37.1243 27.5988 33.4805 27.2849 29.8312 27.3094C25.9999 27.2334 22.1708 27.5475 18.4031 28.2469" stroke="#5557DD" stroke-width="2.8125"></path>
  </symbol>
  <symbol fill="none" xmlns="http://www.w3.org/2000/svg" viewBox="0 0 60 60" id="teacher-purple">
    <path d="M54.5618 28.5969H44.7955V32.2308H54.5618V28.5969Z" fill="#5557DD"></path>
    <path d="M4.63562 0V5.71088L7.13038 4.94118V2.49476H57.0295V34.3001H17.3222L17.1907 36.7968H59.5223V0H4.63562Z" fill="#5557DD"></path>
    <path d="M5.07655 41.2487H9.85527V30.6662L7.27349 25.7695L7.99677 25.5877V22.8396C5.20999 21.9636 3.15616 19.4785 2.92409 16.4654L4.83481 16.742V17.9081H9.84754V17.0804H10.7313V17.9043H15.7441V16.7671L17.3357 16.5196C17.2448 19.0433 15.9433 22.42 12.0677 22.9228V25.4891H12.0812L13.0037 25.9281L10.4799 30.4709V41.2487H13.0211H15.4269L14.5218 35.1645C14.5218 35.1645 14.897 32.693 15.3476 30.088L29.3647 20.6446L28.8019 19.6835L40.2198 12.0696L39.6029 10.9866L28.1753 18.6043L28.4403 19.0627L27.4753 17.4208L18.204 24.7349C18.3684 23.5475 18.7455 22.8745 18.8248 21.014C18.966 17.8385 19.1497 7.37212 10.01 7.37212C9.04883 7.37212 7.92135 7.49009 7.43207 7.70862C6.94472 7.92909 6.85576 8.42804 6.53859 8.53634C6.20983 8.64657 5.74182 8.60403 5.45173 8.74133C0.926347 10.9209 1.08299 16.2372 1.08299 16.2372L1.75213 27.1523L0.477676 39.3882L3.34182 39.6493L4.4809 30.8577C5.17131 33.1939 5.82691 35.3463 5.82691 35.3463L5.07655 41.2487ZM9.28863 17.3473H5.39178V15.3631H9.28863V17.3473ZM15.1852 17.3473H11.2883V15.3631H15.1871L15.1852 17.3473ZM2.95117 15.189C4.96631 15.0517 7.24254 13.464 7.41853 11.2554C9.96938 13.3673 13.5819 13.4698 16.5931 13.7386C16.9663 13.9146 17.2429 14.6727 17.3202 15.6764L15.7441 15.9201V14.8061H10.7313V15.9665H9.84754V14.8061H4.83481V15.893L2.90088 15.6145C2.91635 15.4733 2.93569 15.3341 2.95117 15.189Z" fill="#5557DD"></path>
    <path d="M15.3496 41.883L5.07268 41.8424L4.84254 48.7755H8.02192V58.186C6.57147 58.2111 5.678 58.4354 5.678 59.0872C5.678 59.7737 7.08976 60.0019 7.08976 60.0019H8.02192H10.2575H10.3678C10.3678 60.0019 10.3678 59.5184 10.3678 59.1413C10.3678 59.0079 10.333 58.8764 10.2575 58.7584V48.7774H11.445L11.855 52.6762L11.2187 58.5979C11.0408 58.7545 10.9634 58.9441 10.9634 59.1433C10.9634 59.5165 10.9634 60.0039 10.9634 60.0039H11.0698H13.3247H14.2434C14.2434 60.0039 15.6551 59.7795 15.6551 59.0891C15.6551 58.4664 14.8177 58.2324 13.4717 58.1956L13.9223 52.6762L13.609 48.7813H15.7421L15.3496 41.883Z" fill="#5557DD"></path>
  </symbol>
  <symbol fill="none" xmlns="http://www.w3.org/2000/svg" viewBox="0 0 17 17" id="time-circle">
    <path opacity="0.4" fill-rule="evenodd" clip-rule="evenodd" d="M8.47036 1.58813C4.67561 1.58813 1.58813 4.67545 1.58813 8.47001C1.58813 12.2646 4.67561 15.3519 8.47036 15.3519C12.2651 15.3519 15.3526 12.2646 15.3526 8.47001C15.3526 4.67545 12.2651 1.58813 8.47036 1.58813Z" fill="#5557DD"></path>
    <path d="M11.4192 9.54088H11.4284C11.7164 9.54088 11.9529 9.30937 11.9578 9.01998C11.962 8.72776 11.7291 8.48708 11.4369 8.48213L8.76022 8.43837V5.5381C8.76022 5.24589 8.52305 5.00873 8.23082 5.00873C7.93859 5.00873 7.70142 5.24589 7.70142 5.5381V8.95998C7.70142 9.24867 7.93294 9.48442 8.22235 9.48936L11.4192 9.54088Z" fill="#5557DD"></path>
  </symbol>
  <symbol fill="none" xmlns="http://www.w3.org/2000/svg" viewBox="0 0 18 18" id="time-circle-reg">
    <path fill-rule="evenodd" clip-rule="evenodd" d="M15.9374 9.00012C15.9374 12.8311 12.8316 15.9376 8.99988 15.9376C5.16888 15.9376 2.06238 12.8311 2.06238 9.00012C2.06238 5.16837 5.16888 2.06262 8.99988 2.06262C12.8316 2.06262 15.9374 5.16837 15.9374 9.00012Z" stroke="#5557DD" stroke-width="1.5" stroke-linecap="round" stroke-linejoin="round"></path>
    <path d="M12.1431 9.57539L8.74561 9.51989V5.88464" stroke="#5557DD" stroke-width="1.5" stroke-linecap="round" stroke-linejoin="round"></path>
  </symbol>
</svg>